<?xml version="1.0" encoding="utf-8" standalone="no"?>
<!DOCTYPE svg PUBLIC "-//W3C//DTD SVG 1.1//EN"
  "http://www.w3.org/Graphics/SVG/1.1/DTD/svg11.dtd">
<svg xmlns:xlink="http://www.w3.org/1999/xlink" width="684.634223pt" height="255.654967pt" viewBox="0 0 684.634223 255.654967" xmlns="http://www.w3.org/2000/svg" version="1.1">
 <metadata>
  <rdf:RDF xmlns:dc="http://purl.org/dc/elements/1.1/" xmlns:cc="http://creativecommons.org/ns#" xmlns:rdf="http://www.w3.org/1999/02/22-rdf-syntax-ns#">
   <cc:Work>
    <dc:type rdf:resource="http://purl.org/dc/dcmitype/StillImage"/>
    <dc:format>image/svg+xml</dc:format>
    <dc:creator>
     <cc:Agent>
      <dc:title>Matplotlib v3.10.9, https://matplotlib.org/</dc:title>
     </cc:Agent>
    </dc:creator>
   </cc:Work>
  </rdf:RDF>
 </metadata>
 <defs>
  <style type="text/css">*{stroke-linejoin: round; stroke-linecap: butt}</style>
 </defs>
 <g id="figure_1">
  <g id="patch_1">
   <path d="M 0 255.654967
L 684.634223 255.654967
L 684.634223 0
L 0 0
z
" style="fill: #ffffff"/>
  </g>
  <g id="axes_1">
   <g id="patch_2">
    <path d="M 7.2 248.454967
L 276.410526 248.454967
L 276.410526 22.318125
L 7.2 22.318125
z
" style="fill: #ffffff"/>
   </g>
   <g id="PathCollection_1">
    <defs>
     <path id="md6acaa5120" d="M 0 3.708099
C 0.983399 3.708099 1.926654 3.317391 2.622022 2.622022
C 3.317391 1.926654 3.708099 0.983399 3.708099 0
C 3.708099 -0.983399 3.317391 -1.926654 2.622022 -2.622022
C 1.926654 -3.317391 0.983399 -3.708099 0 -3.708099
C -0.983399 -3.708099 -1.926654 -3.317391 -2.622022 -2.622022
C -3.317391 -1.926654 -3.708099 -0.983399 -3.708099 0
C -3.708099 0.983399 -3.317391 1.926654 -2.622022 2.622022
C -1.926654 3.317391 -0.983399 3.708099 0 3.708099
z
" style="stroke: #94a3b8"/>
    </defs>
    <g clip-path="url(#p9774153eeb)">
     <use xlink:href="#md6acaa5120" x="48.805263" y="101.123388" style="fill: #94a3b8; stroke: #94a3b8"/>
     <use xlink:href="#md6acaa5120" x="87.963158" y="238.17602" style="fill: #94a3b8; stroke: #94a3b8"/>
     <use xlink:href="#md6acaa5120" x="156.489474" y="130.491809" style="fill: #94a3b8; stroke: #94a3b8"/>
     <use xlink:href="#md6acaa5120" x="225.015789" y="32.597072" style="fill: #94a3b8; stroke: #94a3b8"/>
     <use xlink:href="#md6acaa5120" x="264.173684" y="179.439178" style="fill: #94a3b8; stroke: #94a3b8"/>
    </g>
   </g>
   <g id="PathCollection_2">
    <defs>
     <path id="m5f5ba6eeaa" d="M 0 4.743416
C 1.257969 4.743416 2.464584 4.24362 3.354102 3.354102
C 4.24362 2.464584 4.743416 1.257969 4.743416 0
C 4.743416 -1.257969 4.24362 -2.464584 3.354102 -3.354102
C 2.464584 -4.24362 1.257969 -4.743416 0 -4.743416
C -1.257969 -4.743416 -2.464584 -4.24362 -3.354102 -3.354102
C -4.24362 -2.464584 -4.743416 -1.257969 -4.743416 0
C -4.743416 1.257969 -4.24362 2.464584 -3.354102 3.354102
C -2.464584 4.24362 -1.257969 4.743416 0 4.743416
z
" style="stroke: #d62728"/>
    </defs>
    <g clip-path="url(#p9774153eeb)">
     <use xlink:href="#m5f5ba6eeaa" x="19.436842" y="169.649704" style="fill: #d62728; stroke: #d62728"/>
    </g>
   </g>
   <g id="PathCollection_3">
    <defs>
     <path id="m3afbe79679" d="M 0 4.743416
C 1.257969 4.743416 2.464584 4.24362 3.354102 3.354102
C 4.24362 2.464584 4.743416 1.257969 4.743416 0
C 4.743416 -1.257969 4.24362 -2.464584 3.354102 -3.354102
C 2.464584 -4.24362 1.257969 -4.743416 0 -4.743416
C -1.257969 -4.743416 -2.464584 -4.24362 -3.354102 -3.354102
C -4.24362 -2.464584 -4.743416 -1.257969 -4.743416 0
C -4.743416 1.257969 -4.24362 2.464584 -3.354102 3.354102
C -2.464584 4.24362 -1.257969 4.743416 0 4.743416
z
" style="stroke: #2ca02c"/>
    </defs>
    <g clip-path="url(#p9774153eeb)">
     <use xlink:href="#m3afbe79679" x="244.594737" y="71.754967" style="fill: #2ca02c; stroke: #2ca02c"/>
    </g>
   </g>
   <g id="matplotlib.axis_1"/>
   <g id="matplotlib.axis_2"/>
   <g id="line2d_1">
    <path d="M 48.805263 101.123388
L 69.193515 148.016368
" clip-path="url(#p9774153eeb)" style="fill: none; stroke-dasharray: 3.7,1.6; stroke-dashoffset: 0; stroke: #d1d5db"/>
   </g>
   <g id="line2d_2">
    <path d="M 87.963158 238.17602
L 52.011355 155.486872
" clip-path="url(#p9774153eeb)" style="fill: none; stroke-dasharray: 3.7,1.6; stroke-dashoffset: 0; stroke: #d1d5db"/>
   </g>
   <g id="line2d_3">
    <path d="M 156.489474 130.491809
L 149.018969 113.309649
" clip-path="url(#p9774153eeb)" style="fill: none; stroke-dasharray: 3.7,1.6; stroke-dashoffset: 0; stroke: #d1d5db"/>
   </g>
   <g id="line2d_4">
    <path d="M 225.015789 32.597072
L 242.446967 72.68878
" clip-path="url(#p9774153eeb)" style="fill: none; stroke-dasharray: 3.7,1.6; stroke-dashoffset: 0; stroke: #d1d5db"/>
   </g>
   <g id="line2d_5">
    <path d="M 264.173684 179.439178
L 221.68519 81.71564
" clip-path="url(#p9774153eeb)" style="fill: none; stroke-dasharray: 3.7,1.6; stroke-dashoffset: 0; stroke: #d1d5db"/>
   </g>
   <g id="patch_3">
    <path d="M 7.2 248.454967
L 7.2 22.318125
" style="fill: none; stroke: #000000; stroke-width: 0.8; stroke-linejoin: miter; stroke-linecap: square"/>
   </g>
   <g id="patch_4">
    <path d="M 276.410526 248.454967
L 276.410526 22.318125
" style="fill: none; stroke: #000000; stroke-width: 0.8; stroke-linejoin: miter; stroke-linecap: square"/>
   </g>
   <g id="patch_5">
    <path d="M 7.2 248.454967
L 276.410526 248.454967
" style="fill: none; stroke: #000000; stroke-width: 0.8; stroke-linejoin: miter; stroke-linecap: square"/>
   </g>
   <g id="patch_6">
    <path d="M 7.2 22.318125
L 276.410526 22.318125
" style="fill: none; stroke: #000000; stroke-width: 0.8; stroke-linejoin: miter; stroke-linecap: square"/>
   </g>
   <g id="patch_7">
    <path d="M 19.436842 169.649704
Q 132.015789 120.702336 242.339043 72.735704
" style="fill: none; stroke: #9467bd; stroke-width: 2.2; stroke-linecap: round"/>
    <path d="M 237.87331 72.496468
L 242.339043 72.735704
L 239.468215 76.164748
z
" style="fill: #9467bd; stroke: #9467bd; stroke-width: 2.2; stroke-linecap: round"/>
   </g>
   <g id="text_1">
    <text style="font-size: 12px; font-family: 'DejaVu Sans'; text-anchor: middle" x="141.805263" y="16.318125" transform="rotate(-0 141.805263 16.318125)">Concept score is projection onto a direction</text>
   </g>
  </g>
  <g id="axes_2">
   <g id="patch_8">
    <path d="M 351.789474 194.70412
L 621 194.70412
L 621 76.068972
L 351.789474 76.068972
z
" style="fill: #ffffff"/>
   </g>
   <g id="PathCollection_4">
    <defs>
     <path id="C0_0_55414badd7" d="M 0 4.472136
C 1.186024 4.472136 2.323632 4.000923 3.162278 3.162278
C 4.000923 2.323632 4.472136 1.186024 4.472136 -0
C 4.472136 -1.186024 4.000923 -2.323632 3.162278 -3.162278
C 2.323632 -4.000923 1.186024 -4.472136 0 -4.472136
C -1.186024 -4.472136 -2.323632 -4.000923 -3.162278 -3.162278
C -4.000923 -2.323632 -4.472136 -1.186024 -4.472136 0
C -4.472136 1.186024 -4.000923 2.323632 -3.162278 3.162278
C -2.323632 4.000923 -1.186024 4.472136 0 4.472136
z
"/>
    </defs>
    <g clip-path="url(#pe61f4c0240)">
     <use xlink:href="#C0_0_55414badd7" x="364.026316" y="164.423121" style="fill: #1f77b4; stroke: #1f77b4"/>
    </g>
    <g clip-path="url(#pe61f4c0240)">
     <use xlink:href="#C0_0_55414badd7" x="438.691793" y="81.461479" style="fill: #2ca02c; stroke: #2ca02c"/>
    </g>
    <g clip-path="url(#pe61f4c0240)">
     <use xlink:href="#C0_0_55414badd7" x="513.35727" y="189.311613" style="fill: #ff7f0e; stroke: #ff7f0e"/>
    </g>
    <g clip-path="url(#pe61f4c0240)">
     <use xlink:href="#C0_0_55414badd7" x="588.022748" y="106.349972" style="fill: #9467bd; stroke: #9467bd"/>
    </g>
   </g>
   <g id="PathCollection_5">
    <defs>
     <path id="mc8cf1b6939" d="M 0 4.1833
C 1.109424 4.1833 2.173559 3.742521 2.95804 2.95804
C 3.742521 2.173559 4.1833 1.109424 4.1833 0
C 4.1833 -1.109424 3.742521 -2.173559 2.95804 -2.95804
C 2.173559 -3.742521 1.109424 -4.1833 0 -4.1833
C -1.109424 -4.1833 -2.173559 -3.742521 -2.95804 -2.95804
C -3.742521 -2.173559 -4.1833 -1.109424 -4.1833 0
C -4.1833 1.109424 -3.742521 2.173559 -2.95804 2.95804
C -2.173559 3.742521 -1.109424 4.1833 0 4.1833
z
" style="stroke: #d62728"/>
    </defs>
    <g clip-path="url(#pe61f4c0240)">
     <use xlink:href="#mc8cf1b6939" x="608.763158" y="143.68271" style="fill: #d62728; stroke: #d62728"/>
    </g>
   </g>
   <g id="matplotlib.axis_3"/>
   <g id="matplotlib.axis_4"/>
   <g id="line2d_6">
    <path d="M 364.026316 164.423121
L 438.691793 81.461479
L 588.022748 106.349972
L 513.35727 189.311613
L 364.026316 164.423121
" clip-path="url(#pe61f4c0240)" style="fill: none; stroke: #cbd5e1; stroke-width: 1.3; stroke-linecap: square"/>
   </g>
   <g id="patch_9">
    <path d="M 351.789474 194.70412
L 351.789474 76.068972
" style="fill: none; stroke: #000000; stroke-width: 0.8; stroke-linejoin: miter; stroke-linecap: square"/>
   </g>
   <g id="patch_10">
    <path d="M 621 194.70412
L 621 76.068972
" style="fill: none; stroke: #000000; stroke-width: 0.8; stroke-linejoin: miter; stroke-linecap: square"/>
   </g>
   <g id="patch_11">
    <path d="M 351.789474 194.70412
L 621 194.70412
" style="fill: none; stroke: #000000; stroke-width: 0.8; stroke-linejoin: miter; stroke-linecap: square"/>
   </g>
   <g id="patch_12">
    <path d="M 351.789474 76.068972
L 621 76.068972
" style="fill: none; stroke: #000000; stroke-width: 0.8; stroke-linejoin: miter; stroke-linecap: square"/>
   </g>
   <g id="text_2">
    <text style="font-size: 9px; font-family: 'DejaVu Sans'; text-anchor: start" x="369.004014" y="159.445422" transform="rotate(-0 369.004014 159.445422)">a</text>
   </g>
   <g id="text_3">
    <text style="font-size: 9px; font-family: 'DejaVu Sans'; text-anchor: start" x="443.669492" y="76.483781" transform="rotate(-0 443.669492 76.483781)">b</text>
   </g>
   <g id="text_4">
    <text style="font-size: 9px; font-family: 'DejaVu Sans'; text-anchor: start" x="518.334969" y="184.333914" transform="rotate(-0 518.334969 184.333914)">c</text>
   </g>
   <g id="text_5">
    <text style="font-size: 9px; font-family: 'DejaVu Sans'; text-anchor: start" x="593.000446" y="101.372273" transform="rotate(-0 593.000446 101.372273)">b - a + c</text>
   </g>
   <g id="text_6">
    <text style="font-size: 8px; font-family: 'DejaVu Sans'; text-anchor: start; fill: #d62728" x="614.570473" y="143.68271" transform="rotate(-0 614.570473 143.68271)">wrong neighbor</text>
   </g>
   <g id="text_7">
    <text style="font-size: 12px; font-family: 'DejaVu Sans'; text-anchor: middle" x="486.394737" y="70.068972" transform="rotate(-0 486.394737 70.068972)">Analogy arithmetic proposes a target</text>
   </g>
  </g>
 </g>
 <defs>
  <clipPath id="p9774153eeb">
   <rect x="7.2" y="22.318125" width="269.210526" height="226.136842"/>
  </clipPath>
  <clipPath id="pe61f4c0240">
   <rect x="351.789474" y="76.068972" width="269.210526" height="118.635147"/>
  </clipPath>
 </defs>
</svg>
