<?xml version="1.0" encoding="utf-8" standalone="no"?>
<!DOCTYPE svg PUBLIC "-//W3C//DTD SVG 1.1//EN"
  "http://www.w3.org/Graphics/SVG/1.1/DTD/svg11.dtd">
<svg xmlns:xlink="http://www.w3.org/1999/xlink" width="612.871734pt" height="280.512pt" viewBox="0 0 612.871734 280.512" xmlns="http://www.w3.org/2000/svg" version="1.1">
 <metadata>
  <rdf:RDF xmlns:dc="http://purl.org/dc/elements/1.1/" xmlns:cc="http://creativecommons.org/ns#" xmlns:rdf="http://www.w3.org/1999/02/22-rdf-syntax-ns#">
   <cc:Work>
    <dc:type rdf:resource="http://purl.org/dc/dcmitype/StillImage"/>
    <dc:format>image/svg+xml</dc:format>
    <dc:creator>
     <cc:Agent>
      <dc:title>Matplotlib v3.10.9, https://matplotlib.org/</dc:title>
     </cc:Agent>
    </dc:creator>
   </cc:Work>
  </rdf:RDF>
 </metadata>
 <defs>
  <style type="text/css">*{stroke-linejoin: round; stroke-linecap: butt}</style>
 </defs>
 <g id="figure_1">
  <g id="patch_1">
   <path d="M 0 280.512
L 612.871734 280.512
L 612.871734 0
L 0 0
z
" style="fill: #ffffff"/>
  </g>
  <g id="axes_1">
   <g id="patch_2">
    <path d="M 46.26 181.549241
L 129.2625 181.549241
L 129.2625 66.845793
L 46.26 66.845793
z
" clip-path="url(#p2edee715b5)" style="fill: #ffffff; stroke: #1f77b4; stroke-width: 2; stroke-linejoin: miter"/>
   </g>
   <g id="patch_3">
    <path d="M 153.675 181.549241
L 236.6775 181.549241
L 236.6775 66.845793
L 153.675 66.845793
z
" clip-path="url(#p2edee715b5)" style="fill: #ffffff; stroke: #ff7f0e; stroke-width: 2; stroke-linejoin: miter"/>
   </g>
   <g id="patch_4">
    <path d="M 261.09 181.549241
L 344.0925 181.549241
L 344.0925 66.845793
L 261.09 66.845793
z
" clip-path="url(#p2edee715b5)" style="fill: #ffffff; stroke: #2ca02c; stroke-width: 2; stroke-linejoin: miter"/>
   </g>
   <g id="patch_5">
    <path d="M 368.505 181.549241
L 451.5075 181.549241
L 451.5075 66.845793
L 368.505 66.845793
z
" clip-path="url(#p2edee715b5)" style="fill: #ffffff; stroke: #9467bd; stroke-width: 2; stroke-linejoin: miter"/>
   </g>
   <g id="patch_6">
    <path d="M 493.00875 172.372966
L 558.9225 172.372966
L 558.9225 162.279062
L 493.00875 162.279062
z
" clip-path="url(#p2edee715b5)" style="fill: #dbeafe; stroke: #1f77b4; stroke-linejoin: miter"/>
   </g>
   <g id="patch_7">
    <path d="M 493.00875 149.432276
L 558.9225 149.432276
L 558.9225 139.338372
L 493.00875 139.338372
z
" clip-path="url(#p2edee715b5)" style="fill: #dbeafe; stroke: #1f77b4; stroke-linejoin: miter"/>
   </g>
   <g id="patch_8">
    <path d="M 493.00875 112.727172
L 558.9225 112.727172
L 558.9225 102.633269
L 493.00875 102.633269
z
" clip-path="url(#p2edee715b5)" style="fill: #dbeafe; stroke: #1f77b4; stroke-linejoin: miter"/>
   </g>
   <g id="patch_9">
    <path d="M 473.47875 66.386979
L 580.89375 66.386979
Q 582.84675 66.386979 582.84675 64.551724
L 582.84675 39.316966
Q 582.84675 37.48171 580.89375 37.48171
L 473.47875 37.48171
Q 471.52575 37.48171 471.52575 39.316966
L 471.52575 64.551724
Q 471.52575 66.386979 473.47875 66.386979
z
" clip-path="url(#p2edee715b5)" style="fill: #eff6ff; stroke: #1f77b4; stroke-width: 1.3; stroke-linejoin: miter"/>
   </g>
   <g id="text_1">
    <text style="font-weight: 700; font-size: 10px; font-family: 'DejaVu Sans'; text-anchor: middle; fill: #1f77b4" x="87.76125" y="53.081379" transform="rotate(-0 87.76125 53.081379)">weights</text>
   </g>
   <g id="text_2">
    <text style="font-size: 15px; font-family: 'DejaVu Sans'; text-anchor: middle; fill: #1f77b4" x="87.76125" y="130.630649" transform="rotate(-0 87.76125 130.630649)">V x d</text>
   </g>
   <g id="text_3">
    <text style="font-weight: 700; font-size: 10px; font-family: 'DejaVu Sans'; text-anchor: middle; fill: #ff7f0e" x="195.17625" y="53.081379" transform="rotate(-0 195.17625 53.081379)">gradients</text>
   </g>
   <g id="text_4">
    <text style="font-size: 15px; font-family: 'DejaVu Sans'; text-anchor: middle; fill: #ff7f0e" x="195.17625" y="130.630649" transform="rotate(-0 195.17625 130.630649)">V x d</text>
   </g>
   <g id="text_5">
    <text style="font-weight: 700; font-size: 10px; font-family: 'DejaVu Sans'; text-anchor: middle; fill: #2ca02c" x="302.59125" y="53.081379" transform="rotate(-0 302.59125 53.081379)">Adam m</text>
   </g>
   <g id="text_6">
    <text style="font-size: 15px; font-family: 'DejaVu Sans'; text-anchor: middle; fill: #2ca02c" x="302.59125" y="130.630649" transform="rotate(-0 302.59125 130.630649)">V x d</text>
   </g>
   <g id="text_7">
    <text style="font-weight: 700; font-size: 10px; font-family: 'DejaVu Sans'; text-anchor: middle; fill: #9467bd" x="410.00625" y="53.081379" transform="rotate(-0 410.00625 53.081379)">Adam v</text>
   </g>
   <g id="text_8">
    <text style="font-size: 15px; font-family: 'DejaVu Sans'; text-anchor: middle; fill: #9467bd" x="410.00625" y="130.630649" transform="rotate(-0 410.00625 130.630649)">V x d</text>
   </g>
   <g id="text_9">
    <text style="font-size: 10px; font-family: 'DejaVu Sans'; text-anchor: middle; fill: #6b7280" x="207.3825" y="215.960276" transform="rotate(-0 207.3825 215.960276)">optimizer choice can multiply stored embedding memory</text>
   </g>
   <g id="text_10">
    <text style="font-weight: 700; font-size: 9px; font-family: 'DejaVu Sans'; fill: #1f77b4" transform="translate(491.292422 49.378767)">batch touches</text>
    <text style="font-weight: 700; font-size: 9px; font-family: 'DejaVu Sans'; fill: #1f77b4" transform="translate(504.305859 59.456798)">few rows</text>
   </g>
   <g id="patch_10">
    <path d="M 524.745 66.549653
Q 524.745 86.345478 524.745 104.464251
" style="fill: none; stroke: #1f77b4; stroke-width: 1.5; stroke-linecap: round"/>
    <path d="M 526.745 100.464251
L 524.745 104.464251
L 522.745 100.464251
" style="fill: none; stroke: #1f77b4; stroke-width: 1.5; stroke-linecap: round"/>
   </g>
   <g id="text_11">
    <text style="font-size: 9px; font-family: 'DejaVu Sans'; fill: #6b7280" transform="translate(460.579078 205.882245)">stored size scales with V x d;</text>
    <text style="font-size: 9px; font-family: 'DejaVu Sans'; fill: #6b7280" transform="translate(445.771266 215.960276)">update work scales with unique IDs</text>
   </g>
  </g>
 </g>
 <defs>
  <clipPath id="p2edee715b5">
   <rect x="7.2" y="7.2" width="585.9" height="266.112"/>
  </clipPath>
 </defs>
</svg>
