<?xml version="1.0" encoding="utf-8" standalone="no"?>
<!DOCTYPE svg PUBLIC "-//W3C//DTD SVG 1.1//EN"
  "http://www.w3.org/Graphics/SVG/1.1/DTD/svg11.dtd">
<svg xmlns:xlink="http://www.w3.org/1999/xlink" width="572.4pt" height="280.512pt" viewBox="0 0 572.4 280.512" xmlns="http://www.w3.org/2000/svg" version="1.1">
 <metadata>
  <rdf:RDF xmlns:dc="http://purl.org/dc/elements/1.1/" xmlns:cc="http://creativecommons.org/ns#" xmlns:rdf="http://www.w3.org/1999/02/22-rdf-syntax-ns#">
   <cc:Work>
    <dc:type rdf:resource="http://purl.org/dc/dcmitype/StillImage"/>
    <dc:format>image/svg+xml</dc:format>
    <dc:creator>
     <cc:Agent>
      <dc:title>Matplotlib v3.10.9, https://matplotlib.org/</dc:title>
     </cc:Agent>
    </dc:creator>
   </cc:Work>
  </rdf:RDF>
 </metadata>
 <defs>
  <style type="text/css">*{stroke-linejoin: round; stroke-linecap: butt}</style>
 </defs>
 <g id="figure_1">
  <g id="patch_1">
   <path d="M 0 280.512
L 572.4 280.512
L 572.4 0
L 0 0
z
" style="fill: #ffffff"/>
  </g>
  <g id="axes_1">
   <g id="patch_2">
    <path d="M 35.1 57.76128
L 128.1 57.76128
Q 129.96 57.76128 129.96 55.9872
L 129.96 34.69824
Q 129.96 32.92416 128.1 32.92416
L 35.1 32.92416
Q 33.24 32.92416 33.24 34.69824
L 33.24 55.9872
Q 33.24 57.76128 35.1 57.76128
z
" clip-path="url(#p11ac39bfe2)" style="fill: #ffffff; stroke: #94a3b8; stroke-width: 1.3; stroke-linejoin: miter"/>
   </g>
   <g id="patch_3">
    <path d="M 139.725 55.9872
L 155.535 55.9872
L 155.535 34.69824
L 139.725 34.69824
z
" clip-path="url(#p11ac39bfe2)" style="fill: #ffffff; stroke: #cbd5e1; stroke-width: 0.8; stroke-linejoin: miter"/>
   </g>
   <g id="patch_4">
    <path d="M 157.395 55.9872
L 173.205 55.9872
L 173.205 34.69824
L 157.395 34.69824
z
" clip-path="url(#p11ac39bfe2)" style="fill: #ffffff; stroke: #cbd5e1; stroke-width: 0.8; stroke-linejoin: miter"/>
   </g>
   <g id="patch_5">
    <path d="M 175.065 55.9872
L 190.875 55.9872
L 190.875 34.69824
L 175.065 34.69824
z
" clip-path="url(#p11ac39bfe2)" style="fill: #ffffff; stroke: #cbd5e1; stroke-width: 0.8; stroke-linejoin: miter"/>
   </g>
   <g id="patch_6">
    <path d="M 192.735 55.9872
L 208.545 55.9872
L 208.545 34.69824
L 192.735 34.69824
z
" clip-path="url(#p11ac39bfe2)" style="fill: #ffffff; stroke: #cbd5e1; stroke-width: 0.8; stroke-linejoin: miter"/>
   </g>
   <g id="patch_7">
    <path d="M 210.405 55.9872
L 226.215 55.9872
L 226.215 34.69824
L 210.405 34.69824
z
" clip-path="url(#p11ac39bfe2)" style="fill: #ffffff; stroke: #cbd5e1; stroke-width: 0.8; stroke-linejoin: miter"/>
   </g>
   <g id="patch_8">
    <path d="M 35.1 91.02528
L 128.1 91.02528
Q 129.96 91.02528 129.96 89.2512
L 129.96 67.96224
Q 129.96 66.18816 128.1 66.18816
L 35.1 66.18816
Q 33.24 66.18816 33.24 67.96224
L 33.24 89.2512
Q 33.24 91.02528 35.1 91.02528
z
" clip-path="url(#p11ac39bfe2)" style="fill: #dbeafe; stroke: #94a3b8; stroke-width: 1.3; stroke-linejoin: miter"/>
   </g>
   <g id="patch_9">
    <path d="M 139.725 89.2512
L 155.535 89.2512
L 155.535 67.96224
L 139.725 67.96224
z
" clip-path="url(#p11ac39bfe2)" style="fill: #dbeafe; stroke: #cbd5e1; stroke-width: 0.8; stroke-linejoin: miter"/>
   </g>
   <g id="patch_10">
    <path d="M 157.395 89.2512
L 173.205 89.2512
L 173.205 67.96224
L 157.395 67.96224
z
" clip-path="url(#p11ac39bfe2)" style="fill: #dbeafe; stroke: #cbd5e1; stroke-width: 0.8; stroke-linejoin: miter"/>
   </g>
   <g id="patch_11">
    <path d="M 175.065 89.2512
L 190.875 89.2512
L 190.875 67.96224
L 175.065 67.96224
z
" clip-path="url(#p11ac39bfe2)" style="fill: #dbeafe; stroke: #cbd5e1; stroke-width: 0.8; stroke-linejoin: miter"/>
   </g>
   <g id="patch_12">
    <path d="M 192.735 89.2512
L 208.545 89.2512
L 208.545 67.96224
L 192.735 67.96224
z
" clip-path="url(#p11ac39bfe2)" style="fill: #dbeafe; stroke: #cbd5e1; stroke-width: 0.8; stroke-linejoin: miter"/>
   </g>
   <g id="patch_13">
    <path d="M 210.405 89.2512
L 226.215 89.2512
L 226.215 67.96224
L 210.405 67.96224
z
" clip-path="url(#p11ac39bfe2)" style="fill: #dbeafe; stroke: #cbd5e1; stroke-width: 0.8; stroke-linejoin: miter"/>
   </g>
   <g id="patch_14">
    <path d="M 35.1 124.28928
L 128.1 124.28928
Q 129.96 124.28928 129.96 122.5152
L 129.96 101.22624
Q 129.96 99.45216 128.1 99.45216
L 35.1 99.45216
Q 33.24 99.45216 33.24 101.22624
L 33.24 122.5152
Q 33.24 124.28928 35.1 124.28928
z
" clip-path="url(#p11ac39bfe2)" style="fill: #ffffff; stroke: #94a3b8; stroke-width: 1.3; stroke-linejoin: miter"/>
   </g>
   <g id="patch_15">
    <path d="M 139.725 122.5152
L 155.535 122.5152
L 155.535 101.22624
L 139.725 101.22624
z
" clip-path="url(#p11ac39bfe2)" style="fill: #ffffff; stroke: #cbd5e1; stroke-width: 0.8; stroke-linejoin: miter"/>
   </g>
   <g id="patch_16">
    <path d="M 157.395 122.5152
L 173.205 122.5152
L 173.205 101.22624
L 157.395 101.22624
z
" clip-path="url(#p11ac39bfe2)" style="fill: #ffffff; stroke: #cbd5e1; stroke-width: 0.8; stroke-linejoin: miter"/>
   </g>
   <g id="patch_17">
    <path d="M 175.065 122.5152
L 190.875 122.5152
L 190.875 101.22624
L 175.065 101.22624
z
" clip-path="url(#p11ac39bfe2)" style="fill: #ffffff; stroke: #cbd5e1; stroke-width: 0.8; stroke-linejoin: miter"/>
   </g>
   <g id="patch_18">
    <path d="M 192.735 122.5152
L 208.545 122.5152
L 208.545 101.22624
L 192.735 101.22624
z
" clip-path="url(#p11ac39bfe2)" style="fill: #ffffff; stroke: #cbd5e1; stroke-width: 0.8; stroke-linejoin: miter"/>
   </g>
   <g id="patch_19">
    <path d="M 210.405 122.5152
L 226.215 122.5152
L 226.215 101.22624
L 210.405 101.22624
z
" clip-path="url(#p11ac39bfe2)" style="fill: #ffffff; stroke: #cbd5e1; stroke-width: 0.8; stroke-linejoin: miter"/>
   </g>
   <g id="patch_20">
    <path d="M 35.1 157.55328
L 128.1 157.55328
Q 129.96 157.55328 129.96 155.7792
L 129.96 134.49024
Q 129.96 132.71616 128.1 132.71616
L 35.1 132.71616
Q 33.24 132.71616 33.24 134.49024
L 33.24 155.7792
Q 33.24 157.55328 35.1 157.55328
z
" clip-path="url(#p11ac39bfe2)" style="fill: #dbeafe; stroke: #94a3b8; stroke-width: 1.3; stroke-linejoin: miter"/>
   </g>
   <g id="patch_21">
    <path d="M 139.725 155.7792
L 155.535 155.7792
L 155.535 134.49024
L 139.725 134.49024
z
" clip-path="url(#p11ac39bfe2)" style="fill: #dbeafe; stroke: #cbd5e1; stroke-width: 0.8; stroke-linejoin: miter"/>
   </g>
   <g id="patch_22">
    <path d="M 157.395 155.7792
L 173.205 155.7792
L 173.205 134.49024
L 157.395 134.49024
z
" clip-path="url(#p11ac39bfe2)" style="fill: #dbeafe; stroke: #cbd5e1; stroke-width: 0.8; stroke-linejoin: miter"/>
   </g>
   <g id="patch_23">
    <path d="M 175.065 155.7792
L 190.875 155.7792
L 190.875 134.49024
L 175.065 134.49024
z
" clip-path="url(#p11ac39bfe2)" style="fill: #dbeafe; stroke: #cbd5e1; stroke-width: 0.8; stroke-linejoin: miter"/>
   </g>
   <g id="patch_24">
    <path d="M 192.735 155.7792
L 208.545 155.7792
L 208.545 134.49024
L 192.735 134.49024
z
" clip-path="url(#p11ac39bfe2)" style="fill: #dbeafe; stroke: #cbd5e1; stroke-width: 0.8; stroke-linejoin: miter"/>
   </g>
   <g id="patch_25">
    <path d="M 210.405 155.7792
L 226.215 155.7792
L 226.215 134.49024
L 210.405 134.49024
z
" clip-path="url(#p11ac39bfe2)" style="fill: #dbeafe; stroke: #cbd5e1; stroke-width: 0.8; stroke-linejoin: miter"/>
   </g>
   <g id="patch_26">
    <path d="M 35.1 190.81728
L 128.1 190.81728
Q 129.96 190.81728 129.96 189.0432
L 129.96 167.75424
Q 129.96 165.98016 128.1 165.98016
L 35.1 165.98016
Q 33.24 165.98016 33.24 167.75424
L 33.24 189.0432
Q 33.24 190.81728 35.1 190.81728
z
" clip-path="url(#p11ac39bfe2)" style="fill: #ffffff; stroke: #94a3b8; stroke-width: 1.3; stroke-linejoin: miter"/>
   </g>
   <g id="patch_27">
    <path d="M 139.725 189.0432
L 155.535 189.0432
L 155.535 167.75424
L 139.725 167.75424
z
" clip-path="url(#p11ac39bfe2)" style="fill: #ffffff; stroke: #cbd5e1; stroke-width: 0.8; stroke-linejoin: miter"/>
   </g>
   <g id="patch_28">
    <path d="M 157.395 189.0432
L 173.205 189.0432
L 173.205 167.75424
L 157.395 167.75424
z
" clip-path="url(#p11ac39bfe2)" style="fill: #ffffff; stroke: #cbd5e1; stroke-width: 0.8; stroke-linejoin: miter"/>
   </g>
   <g id="patch_29">
    <path d="M 175.065 189.0432
L 190.875 189.0432
L 190.875 167.75424
L 175.065 167.75424
z
" clip-path="url(#p11ac39bfe2)" style="fill: #ffffff; stroke: #cbd5e1; stroke-width: 0.8; stroke-linejoin: miter"/>
   </g>
   <g id="patch_30">
    <path d="M 192.735 189.0432
L 208.545 189.0432
L 208.545 167.75424
L 192.735 167.75424
z
" clip-path="url(#p11ac39bfe2)" style="fill: #ffffff; stroke: #cbd5e1; stroke-width: 0.8; stroke-linejoin: miter"/>
   </g>
   <g id="patch_31">
    <path d="M 210.405 189.0432
L 226.215 189.0432
L 226.215 167.75424
L 210.405 167.75424
z
" clip-path="url(#p11ac39bfe2)" style="fill: #ffffff; stroke: #cbd5e1; stroke-width: 0.8; stroke-linejoin: miter"/>
   </g>
   <g id="PathCollection_1">
    <defs>
     <path id="m50693f82ad" d="M 0 3.872983
C 1.027127 3.872983 2.012324 3.464901 2.738613 2.738613
C 3.464901 2.012324 3.872983 1.027127 3.872983 0
C 3.872983 -1.027127 3.464901 -2.012324 2.738613 -2.738613
C 2.012324 -3.464901 1.027127 -3.872983 0 -3.872983
C -1.027127 -3.872983 -2.012324 -3.464901 -2.738613 -2.738613
C -3.464901 -2.012324 -3.872983 -1.027127 -3.872983 0
C -3.872983 1.027127 -3.464901 2.012324 -2.738613 2.738613
C -2.012324 3.464901 -1.027127 3.872983 0 3.872983
z
" style="stroke: #94a3b8"/>
    </defs>
    <g clip-path="url(#p11ac39bfe2)">
     <use xlink:href="#m50693f82ad" x="332.7" y="73.728" style="fill: #94a3b8; stroke: #94a3b8"/>
     <use xlink:href="#m50693f82ad" x="379.2" y="93.6864" style="fill: #94a3b8; stroke: #94a3b8"/>
     <use xlink:href="#m50693f82ad" x="407.1" y="175.7376" style="fill: #94a3b8; stroke: #94a3b8"/>
     <use xlink:href="#m50693f82ad" x="318.75" y="184.608" style="fill: #94a3b8; stroke: #94a3b8"/>
     <use xlink:href="#m50693f82ad" x="439.65" y="60.4224" style="fill: #94a3b8; stroke: #94a3b8"/>
     <use xlink:href="#m50693f82ad" x="365.25" y="153.5616" style="fill: #94a3b8; stroke: #94a3b8"/>
    </g>
   </g>
   <g id="PathCollection_2">
    <defs>
     <path id="C0_0_10095a783e" d="M 0 5.477226
C 1.452577 5.477226 2.845856 4.900111 3.872983 3.872983
C 4.900111 2.845856 5.477226 1.452577 5.477226 -0
C 5.477226 -1.452577 4.900111 -2.845856 3.872983 -3.872983
C 2.845856 -4.900111 1.452577 -5.477226 0 -5.477226
C -1.452577 -5.477226 -2.845856 -4.900111 -3.872983 -3.872983
C -4.900111 -2.845856 -5.477226 -1.452577 -5.477226 0
C -5.477226 1.452577 -4.900111 2.845856 -3.872983 3.872983
C -2.845856 4.900111 -1.452577 5.477226 0 5.477226
z
"/>
    </defs>
    <g clip-path="url(#p11ac39bfe2)">
     <use xlink:href="#C0_0_10095a783e" x="379.2" y="93.6864" style="fill: #2ca02c; stroke: #ffffff"/>
    </g>
    <g clip-path="url(#p11ac39bfe2)">
     <use xlink:href="#C0_0_10095a783e" x="318.75" y="184.608" style="fill: #9467bd; stroke: #ffffff"/>
    </g>
   </g>
   <g id="patch_32">
    <path d="M 379.2 129.168
C 389.065555 129.168 398.528371 125.429435 405.504372 118.77568
C 412.480373 112.121925 416.4 103.09623 416.4 93.6864
C 416.4 84.27657 412.480373 75.250875 405.504372 68.59712
C 398.528371 61.943365 389.065555 58.2048 379.2 58.2048
C 369.334445 58.2048 359.871629 61.943365 352.895628 68.59712
C 345.919627 75.250875 342 84.27657 342 93.6864
C 342 103.09623 345.919627 112.121925 352.895628 118.77568
C 359.871629 125.429435 369.334445 129.168 379.2 129.168
L 379.2 129.168
z
" clip-path="url(#p11ac39bfe2)" style="fill: none; stroke-dasharray: 5.55,2.4; stroke-dashoffset: 0; stroke: #2ca02c; stroke-width: 1.5; stroke-linejoin: miter"/>
   </g>
   <g id="text_1">
    <text style="font-size: 9px; font-family: 'DejaVu Sans'; text-anchor: middle; fill: #111827" x="81.6" y="47.826157" transform="rotate(-0 81.6 47.826157)">token 17</text>
   </g>
   <g id="text_2">
    <text style="font-size: 9px; font-family: 'DejaVu Sans'; text-anchor: middle; fill: #111827" x="81.6" y="81.090157" transform="rotate(-0 81.6 81.090157)">item 42</text>
   </g>
   <g id="text_3">
    <text style="font-size: 9px; font-family: 'DejaVu Sans'; text-anchor: middle; fill: #111827" x="81.6" y="114.354157" transform="rotate(-0 81.6 114.354157)">doc 108</text>
   </g>
   <g id="text_4">
    <text style="font-size: 9px; font-family: 'DejaVu Sans'; text-anchor: middle; fill: #111827" x="81.6" y="147.618157" transform="rotate(-0 81.6 147.618157)">user 9</text>
   </g>
   <g id="text_5">
    <text style="font-size: 9px; font-family: 'DejaVu Sans'; text-anchor: middle; fill: #111827" x="81.6" y="180.882157" transform="rotate(-0 81.6 180.882157)">token 511</text>
   </g>
   <g id="text_6">
    <text style="font-weight: 700; font-size: 10px; font-family: 'DejaVu Sans'; text-anchor: middle; fill: #1f77b4" x="97.875" y="22.7232" transform="rotate(-0 97.875 22.7232)">embedding table E</text>
   </g>
   <g id="text_7">
    <text style="font-size: 9px; font-family: 'DejaVu Sans'; text-anchor: middle; fill: #6b7280" x="183.9" y="22.7232" transform="rotate(-0 183.9 22.7232)">d coordinates per row</text>
   </g>
   <g id="patch_33">
    <path d="M 230.071983 89.309807
Q 303.637041 91.468787 375.30226 93.57201
" style="fill: none; stroke: #2ca02c; stroke-width: 1.7; stroke-linecap: round"/>
    <path d="M 371.362652 91.455529
L 375.30226 93.57201
L 371.245311 95.453808
" style="fill: none; stroke: #2ca02c; stroke-width: 1.7; stroke-linecap: round"/>
   </g>
   <g id="patch_34">
    <path d="M 229.981588 156.385372
Q 273.413582 170.193944 315.03426 183.426635
" style="fill: none; stroke: #9467bd; stroke-width: 1.7; stroke-linecap: round"/>
    <path d="M 311.828267 180.308685
L 315.03426 183.426635
L 310.616305 184.12066
" style="fill: none; stroke: #9467bd; stroke-width: 1.7; stroke-linecap: round"/>
   </g>
   <g id="text_8">
    <text style="font-weight: 700; font-size: 10px; font-family: 'DejaVu Sans'; text-anchor: middle; fill: #2ca02c" x="383.85" y="31.5936" transform="rotate(-0 383.85 31.5936)">same rows become locations</text>
   </g>
   <g id="text_9">
    <text style="font-size: 9px; font-family: 'DejaVu Sans'; fill: #6b7280" transform="translate(423.375 110.219569)">a metric later decides</text>
    <text style="font-size: 9px; font-family: 'DejaVu Sans'; fill: #6b7280" transform="translate(423.375 120.2976)">which locations are close</text>
   </g>
  </g>
 </g>
 <defs>
  <clipPath id="p11ac39bfe2">
   <rect x="7.2" y="7.2" width="558" height="266.112"/>
  </clipPath>
 </defs>
</svg>
