<?xml version="1.0" encoding="utf-8" standalone="no"?>
<!DOCTYPE svg PUBLIC "-//W3C//DTD SVG 1.1//EN"
  "http://www.w3.org/Graphics/SVG/1.1/DTD/svg11.dtd">
<svg xmlns:xlink="http://www.w3.org/1999/xlink" width="570.899844pt" height="263.88pt" viewBox="0 0 570.899844 263.88" xmlns="http://www.w3.org/2000/svg" version="1.1">
 <metadata>
  <rdf:RDF xmlns:dc="http://purl.org/dc/elements/1.1/" xmlns:cc="http://creativecommons.org/ns#" xmlns:rdf="http://www.w3.org/1999/02/22-rdf-syntax-ns#">
   <cc:Work>
    <dc:type rdf:resource="http://purl.org/dc/dcmitype/StillImage"/>
    <dc:format>image/svg+xml</dc:format>
    <dc:creator>
     <cc:Agent>
      <dc:title>Matplotlib v3.10.9, https://matplotlib.org/</dc:title>
     </cc:Agent>
    </dc:creator>
   </cc:Work>
  </rdf:RDF>
 </metadata>
 <defs>
  <style type="text/css">*{stroke-linejoin: round; stroke-linecap: butt}</style>
 </defs>
 <g id="figure_1">
  <g id="patch_1">
   <path d="M 0 263.88
L 570.899844 263.88
L 570.899844 0
L 0 0
z
" style="fill: #ffffff"/>
  </g>
  <g id="axes_1">
   <g id="patch_2">
    <path d="M 27.7065 67.3425
L 48.213 67.3425
L 48.213 47.295
L 27.7065 47.295
z
" clip-path="url(#p0dd43a27c8)" style="fill: #ffffff; stroke: #9ca3af; stroke-width: 0.8; stroke-linejoin: miter"/>
   </g>
   <g id="patch_3">
    <path d="M 48.213 67.3425
L 68.7195 67.3425
L 68.7195 47.295
L 48.213 47.295
z
" clip-path="url(#p0dd43a27c8)" style="fill: #ffffff; stroke: #9ca3af; stroke-width: 0.8; stroke-linejoin: miter"/>
   </g>
   <g id="patch_4">
    <path d="M 68.7195 67.3425
L 89.226 67.3425
L 89.226 47.295
L 68.7195 47.295
z
" clip-path="url(#p0dd43a27c8)" style="fill: #ffffff; stroke: #9ca3af; stroke-width: 0.8; stroke-linejoin: miter"/>
   </g>
   <g id="patch_5">
    <path d="M 89.226 67.3425
L 109.7325 67.3425
L 109.7325 47.295
L 89.226 47.295
z
" clip-path="url(#p0dd43a27c8)" style="fill: #ffffff; stroke: #9ca3af; stroke-width: 0.8; stroke-linejoin: miter"/>
   </g>
   <g id="patch_6">
    <path d="M 109.7325 67.3425
L 130.239 67.3425
L 130.239 47.295
L 109.7325 47.295
z
" clip-path="url(#p0dd43a27c8)" style="fill: #ffffff; stroke: #9ca3af; stroke-width: 0.8; stroke-linejoin: miter"/>
   </g>
   <g id="patch_7">
    <path d="M 27.7065 87.39
L 48.213 87.39
L 48.213 67.3425
L 27.7065 67.3425
z
" clip-path="url(#p0dd43a27c8)" style="fill: #ffffff; stroke: #9ca3af; stroke-width: 0.8; stroke-linejoin: miter"/>
   </g>
   <g id="patch_8">
    <path d="M 48.213 87.39
L 68.7195 87.39
L 68.7195 67.3425
L 48.213 67.3425
z
" clip-path="url(#p0dd43a27c8)" style="fill: #ffffff; stroke: #9ca3af; stroke-width: 0.8; stroke-linejoin: miter"/>
   </g>
   <g id="patch_9">
    <path d="M 68.7195 87.39
L 89.226 87.39
L 89.226 67.3425
L 68.7195 67.3425
z
" clip-path="url(#p0dd43a27c8)" style="fill: #ffffff; stroke: #9ca3af; stroke-width: 0.8; stroke-linejoin: miter"/>
   </g>
   <g id="patch_10">
    <path d="M 89.226 87.39
L 109.7325 87.39
L 109.7325 67.3425
L 89.226 67.3425
z
" clip-path="url(#p0dd43a27c8)" style="fill: #ffffff; stroke: #9ca3af; stroke-width: 0.8; stroke-linejoin: miter"/>
   </g>
   <g id="patch_11">
    <path d="M 109.7325 87.39
L 130.239 87.39
L 130.239 67.3425
L 109.7325 67.3425
z
" clip-path="url(#p0dd43a27c8)" style="fill: #ffffff; stroke: #9ca3af; stroke-width: 0.8; stroke-linejoin: miter"/>
   </g>
   <g id="patch_12">
    <path d="M 27.7065 107.4375
L 48.213 107.4375
L 48.213 87.39
L 27.7065 87.39
z
" clip-path="url(#p0dd43a27c8)" style="fill: #e0f2fe; stroke: #9ca3af; stroke-width: 0.8; stroke-linejoin: miter"/>
   </g>
   <g id="patch_13">
    <path d="M 48.213 107.4375
L 68.7195 107.4375
L 68.7195 87.39
L 48.213 87.39
z
" clip-path="url(#p0dd43a27c8)" style="fill: #e0f2fe; stroke: #9ca3af; stroke-width: 0.8; stroke-linejoin: miter"/>
   </g>
   <g id="patch_14">
    <path d="M 68.7195 107.4375
L 89.226 107.4375
L 89.226 87.39
L 68.7195 87.39
z
" clip-path="url(#p0dd43a27c8)" style="fill: #e0f2fe; stroke: #9ca3af; stroke-width: 0.8; stroke-linejoin: miter"/>
   </g>
   <g id="patch_15">
    <path d="M 89.226 107.4375
L 109.7325 107.4375
L 109.7325 87.39
L 89.226 87.39
z
" clip-path="url(#p0dd43a27c8)" style="fill: #e0f2fe; stroke: #9ca3af; stroke-width: 0.8; stroke-linejoin: miter"/>
   </g>
   <g id="patch_16">
    <path d="M 109.7325 107.4375
L 130.239 107.4375
L 130.239 87.39
L 109.7325 87.39
z
" clip-path="url(#p0dd43a27c8)" style="fill: #e0f2fe; stroke: #9ca3af; stroke-width: 0.8; stroke-linejoin: miter"/>
   </g>
   <g id="patch_17">
    <path d="M 27.7065 127.485
L 48.213 127.485
L 48.213 107.4375
L 27.7065 107.4375
z
" clip-path="url(#p0dd43a27c8)" style="fill: #ffffff; stroke: #9ca3af; stroke-width: 0.8; stroke-linejoin: miter"/>
   </g>
   <g id="patch_18">
    <path d="M 48.213 127.485
L 68.7195 127.485
L 68.7195 107.4375
L 48.213 107.4375
z
" clip-path="url(#p0dd43a27c8)" style="fill: #ffffff; stroke: #9ca3af; stroke-width: 0.8; stroke-linejoin: miter"/>
   </g>
   <g id="patch_19">
    <path d="M 68.7195 127.485
L 89.226 127.485
L 89.226 107.4375
L 68.7195 107.4375
z
" clip-path="url(#p0dd43a27c8)" style="fill: #ffffff; stroke: #9ca3af; stroke-width: 0.8; stroke-linejoin: miter"/>
   </g>
   <g id="patch_20">
    <path d="M 89.226 127.485
L 109.7325 127.485
L 109.7325 107.4375
L 89.226 107.4375
z
" clip-path="url(#p0dd43a27c8)" style="fill: #ffffff; stroke: #9ca3af; stroke-width: 0.8; stroke-linejoin: miter"/>
   </g>
   <g id="patch_21">
    <path d="M 109.7325 127.485
L 130.239 127.485
L 130.239 107.4375
L 109.7325 107.4375
z
" clip-path="url(#p0dd43a27c8)" style="fill: #ffffff; stroke: #9ca3af; stroke-width: 0.8; stroke-linejoin: miter"/>
   </g>
   <g id="patch_22">
    <path d="M 27.7065 147.5325
L 48.213 147.5325
L 48.213 127.485
L 27.7065 127.485
z
" clip-path="url(#p0dd43a27c8)" style="fill: #ffffff; stroke: #9ca3af; stroke-width: 0.8; stroke-linejoin: miter"/>
   </g>
   <g id="patch_23">
    <path d="M 48.213 147.5325
L 68.7195 147.5325
L 68.7195 127.485
L 48.213 127.485
z
" clip-path="url(#p0dd43a27c8)" style="fill: #ffffff; stroke: #9ca3af; stroke-width: 0.8; stroke-linejoin: miter"/>
   </g>
   <g id="patch_24">
    <path d="M 68.7195 147.5325
L 89.226 147.5325
L 89.226 127.485
L 68.7195 127.485
z
" clip-path="url(#p0dd43a27c8)" style="fill: #ffffff; stroke: #9ca3af; stroke-width: 0.8; stroke-linejoin: miter"/>
   </g>
   <g id="patch_25">
    <path d="M 89.226 147.5325
L 109.7325 147.5325
L 109.7325 127.485
L 89.226 127.485
z
" clip-path="url(#p0dd43a27c8)" style="fill: #ffffff; stroke: #9ca3af; stroke-width: 0.8; stroke-linejoin: miter"/>
   </g>
   <g id="patch_26">
    <path d="M 109.7325 147.5325
L 130.239 147.5325
L 130.239 127.485
L 109.7325 127.485
z
" clip-path="url(#p0dd43a27c8)" style="fill: #ffffff; stroke: #9ca3af; stroke-width: 0.8; stroke-linejoin: miter"/>
   </g>
   <g id="patch_27">
    <path d="M 27.7065 147.5325
L 130.239 147.5325
L 130.239 47.295
L 27.7065 47.295
L 27.7065 147.5325
z
" clip-path="url(#p0dd43a27c8)" style="fill: none; stroke: #1f77b4; stroke-width: 2; stroke-linejoin: miter"/>
   </g>
   <g id="patch_28">
    <path d="M 189.48 67.3425
L 209.9865 67.3425
L 209.9865 47.295
L 189.48 47.295
z
" clip-path="url(#p0dd43a27c8)" style="fill: #ffffff; stroke: #9ca3af; stroke-width: 0.8; stroke-linejoin: miter"/>
   </g>
   <g id="patch_29">
    <path d="M 209.9865 67.3425
L 230.493 67.3425
L 230.493 47.295
L 209.9865 47.295
z
" clip-path="url(#p0dd43a27c8)" style="fill: #ffffff; stroke: #9ca3af; stroke-width: 0.8; stroke-linejoin: miter"/>
   </g>
   <g id="patch_30">
    <path d="M 189.48 87.39
L 209.9865 87.39
L 209.9865 67.3425
L 189.48 67.3425
z
" clip-path="url(#p0dd43a27c8)" style="fill: #ffffff; stroke: #9ca3af; stroke-width: 0.8; stroke-linejoin: miter"/>
   </g>
   <g id="patch_31">
    <path d="M 209.9865 87.39
L 230.493 87.39
L 230.493 67.3425
L 209.9865 67.3425
z
" clip-path="url(#p0dd43a27c8)" style="fill: #ffffff; stroke: #9ca3af; stroke-width: 0.8; stroke-linejoin: miter"/>
   </g>
   <g id="patch_32">
    <path d="M 189.48 107.4375
L 209.9865 107.4375
L 209.9865 87.39
L 189.48 87.39
z
" clip-path="url(#p0dd43a27c8)" style="fill: #e0f2fe; stroke: #9ca3af; stroke-width: 0.8; stroke-linejoin: miter"/>
   </g>
   <g id="patch_33">
    <path d="M 209.9865 107.4375
L 230.493 107.4375
L 230.493 87.39
L 209.9865 87.39
z
" clip-path="url(#p0dd43a27c8)" style="fill: #e0f2fe; stroke: #9ca3af; stroke-width: 0.8; stroke-linejoin: miter"/>
   </g>
   <g id="patch_34">
    <path d="M 189.48 127.485
L 209.9865 127.485
L 209.9865 107.4375
L 189.48 107.4375
z
" clip-path="url(#p0dd43a27c8)" style="fill: #ffffff; stroke: #9ca3af; stroke-width: 0.8; stroke-linejoin: miter"/>
   </g>
   <g id="patch_35">
    <path d="M 209.9865 127.485
L 230.493 127.485
L 230.493 107.4375
L 209.9865 107.4375
z
" clip-path="url(#p0dd43a27c8)" style="fill: #ffffff; stroke: #9ca3af; stroke-width: 0.8; stroke-linejoin: miter"/>
   </g>
   <g id="patch_36">
    <path d="M 189.48 147.5325
L 209.9865 147.5325
L 209.9865 127.485
L 189.48 127.485
z
" clip-path="url(#p0dd43a27c8)" style="fill: #ffffff; stroke: #9ca3af; stroke-width: 0.8; stroke-linejoin: miter"/>
   </g>
   <g id="patch_37">
    <path d="M 209.9865 147.5325
L 230.493 147.5325
L 230.493 127.485
L 209.9865 127.485
z
" clip-path="url(#p0dd43a27c8)" style="fill: #ffffff; stroke: #9ca3af; stroke-width: 0.8; stroke-linejoin: miter"/>
   </g>
   <g id="patch_38">
    <path d="M 189.48 147.5325
L 230.493 147.5325
L 230.493 47.295
L 189.48 47.295
L 189.48 147.5325
z
" clip-path="url(#p0dd43a27c8)" style="fill: none; stroke: #2ca02c; stroke-width: 2; stroke-linejoin: miter"/>
   </g>
   <g id="patch_39">
    <path d="M 280.62 87.39
L 301.1265 87.39
L 301.1265 67.3425
L 280.62 67.3425
z
" clip-path="url(#p0dd43a27c8)" style="fill: #ffffff; stroke: #9ca3af; stroke-width: 0.8; stroke-linejoin: miter"/>
   </g>
   <g id="patch_40">
    <path d="M 301.1265 87.39
L 321.633 87.39
L 321.633 67.3425
L 301.1265 67.3425
z
" clip-path="url(#p0dd43a27c8)" style="fill: #ffffff; stroke: #9ca3af; stroke-width: 0.8; stroke-linejoin: miter"/>
   </g>
   <g id="patch_41">
    <path d="M 321.633 87.39
L 342.1395 87.39
L 342.1395 67.3425
L 321.633 67.3425
z
" clip-path="url(#p0dd43a27c8)" style="fill: #ffffff; stroke: #9ca3af; stroke-width: 0.8; stroke-linejoin: miter"/>
   </g>
   <g id="patch_42">
    <path d="M 342.1395 87.39
L 362.646 87.39
L 362.646 67.3425
L 342.1395 67.3425
z
" clip-path="url(#p0dd43a27c8)" style="fill: #ffffff; stroke: #9ca3af; stroke-width: 0.8; stroke-linejoin: miter"/>
   </g>
   <g id="patch_43">
    <path d="M 362.646 87.39
L 383.1525 87.39
L 383.1525 67.3425
L 362.646 67.3425
z
" clip-path="url(#p0dd43a27c8)" style="fill: #ffffff; stroke: #9ca3af; stroke-width: 0.8; stroke-linejoin: miter"/>
   </g>
   <g id="patch_44">
    <path d="M 280.62 107.4375
L 301.1265 107.4375
L 301.1265 87.39
L 280.62 87.39
z
" clip-path="url(#p0dd43a27c8)" style="fill: #ffffff; stroke: #9ca3af; stroke-width: 0.8; stroke-linejoin: miter"/>
   </g>
   <g id="patch_45">
    <path d="M 301.1265 107.4375
L 321.633 107.4375
L 321.633 87.39
L 301.1265 87.39
z
" clip-path="url(#p0dd43a27c8)" style="fill: #ffffff; stroke: #9ca3af; stroke-width: 0.8; stroke-linejoin: miter"/>
   </g>
   <g id="patch_46">
    <path d="M 321.633 107.4375
L 342.1395 107.4375
L 342.1395 87.39
L 321.633 87.39
z
" clip-path="url(#p0dd43a27c8)" style="fill: #ffffff; stroke: #9ca3af; stroke-width: 0.8; stroke-linejoin: miter"/>
   </g>
   <g id="patch_47">
    <path d="M 342.1395 107.4375
L 362.646 107.4375
L 362.646 87.39
L 342.1395 87.39
z
" clip-path="url(#p0dd43a27c8)" style="fill: #ffffff; stroke: #9ca3af; stroke-width: 0.8; stroke-linejoin: miter"/>
   </g>
   <g id="patch_48">
    <path d="M 362.646 107.4375
L 383.1525 107.4375
L 383.1525 87.39
L 362.646 87.39
z
" clip-path="url(#p0dd43a27c8)" style="fill: #ffffff; stroke: #9ca3af; stroke-width: 0.8; stroke-linejoin: miter"/>
   </g>
   <g id="patch_49">
    <path d="M 280.62 107.4375
L 383.1525 107.4375
L 383.1525 67.3425
L 280.62 67.3425
L 280.62 107.4375
z
" clip-path="url(#p0dd43a27c8)" style="fill: none; stroke: #ff7f0e; stroke-width: 2; stroke-linejoin: miter"/>
   </g>
   <g id="patch_50">
    <path d="M 462.9 67.3425
L 483.4065 67.3425
L 483.4065 47.295
L 462.9 47.295
z
" clip-path="url(#p0dd43a27c8)" style="fill: #ffffff; stroke: #9ca3af; stroke-width: 0.8; stroke-linejoin: miter"/>
   </g>
   <g id="patch_51">
    <path d="M 483.4065 67.3425
L 503.913 67.3425
L 503.913 47.295
L 483.4065 47.295
z
" clip-path="url(#p0dd43a27c8)" style="fill: #ffffff; stroke: #9ca3af; stroke-width: 0.8; stroke-linejoin: miter"/>
   </g>
   <g id="patch_52">
    <path d="M 503.913 67.3425
L 524.4195 67.3425
L 524.4195 47.295
L 503.913 47.295
z
" clip-path="url(#p0dd43a27c8)" style="fill: #ffffff; stroke: #9ca3af; stroke-width: 0.8; stroke-linejoin: miter"/>
   </g>
   <g id="patch_53">
    <path d="M 524.4195 67.3425
L 544.926 67.3425
L 544.926 47.295
L 524.4195 47.295
z
" clip-path="url(#p0dd43a27c8)" style="fill: #ffffff; stroke: #9ca3af; stroke-width: 0.8; stroke-linejoin: miter"/>
   </g>
   <g id="patch_54">
    <path d="M 544.926 67.3425
L 565.4325 67.3425
L 565.4325 47.295
L 544.926 47.295
z
" clip-path="url(#p0dd43a27c8)" style="fill: #ffffff; stroke: #9ca3af; stroke-width: 0.8; stroke-linejoin: miter"/>
   </g>
   <g id="patch_55">
    <path d="M 462.9 87.39
L 483.4065 87.39
L 483.4065 67.3425
L 462.9 67.3425
z
" clip-path="url(#p0dd43a27c8)" style="fill: #ffffff; stroke: #9ca3af; stroke-width: 0.8; stroke-linejoin: miter"/>
   </g>
   <g id="patch_56">
    <path d="M 483.4065 87.39
L 503.913 87.39
L 503.913 67.3425
L 483.4065 67.3425
z
" clip-path="url(#p0dd43a27c8)" style="fill: #ffffff; stroke: #9ca3af; stroke-width: 0.8; stroke-linejoin: miter"/>
   </g>
   <g id="patch_57">
    <path d="M 503.913 87.39
L 524.4195 87.39
L 524.4195 67.3425
L 503.913 67.3425
z
" clip-path="url(#p0dd43a27c8)" style="fill: #ffffff; stroke: #9ca3af; stroke-width: 0.8; stroke-linejoin: miter"/>
   </g>
   <g id="patch_58">
    <path d="M 524.4195 87.39
L 544.926 87.39
L 544.926 67.3425
L 524.4195 67.3425
z
" clip-path="url(#p0dd43a27c8)" style="fill: #ffffff; stroke: #9ca3af; stroke-width: 0.8; stroke-linejoin: miter"/>
   </g>
   <g id="patch_59">
    <path d="M 544.926 87.39
L 565.4325 87.39
L 565.4325 67.3425
L 544.926 67.3425
z
" clip-path="url(#p0dd43a27c8)" style="fill: #ffffff; stroke: #9ca3af; stroke-width: 0.8; stroke-linejoin: miter"/>
   </g>
   <g id="patch_60">
    <path d="M 462.9 107.4375
L 483.4065 107.4375
L 483.4065 87.39
L 462.9 87.39
z
" clip-path="url(#p0dd43a27c8)" style="fill: #e0f2fe; stroke: #9ca3af; stroke-width: 0.8; stroke-linejoin: miter"/>
   </g>
   <g id="patch_61">
    <path d="M 483.4065 107.4375
L 503.913 107.4375
L 503.913 87.39
L 483.4065 87.39
z
" clip-path="url(#p0dd43a27c8)" style="fill: #e0f2fe; stroke: #9ca3af; stroke-width: 0.8; stroke-linejoin: miter"/>
   </g>
   <g id="patch_62">
    <path d="M 503.913 107.4375
L 524.4195 107.4375
L 524.4195 87.39
L 503.913 87.39
z
" clip-path="url(#p0dd43a27c8)" style="fill: #e0f2fe; stroke: #9ca3af; stroke-width: 0.8; stroke-linejoin: miter"/>
   </g>
   <g id="patch_63">
    <path d="M 524.4195 107.4375
L 544.926 107.4375
L 544.926 87.39
L 524.4195 87.39
z
" clip-path="url(#p0dd43a27c8)" style="fill: #e0f2fe; stroke: #9ca3af; stroke-width: 0.8; stroke-linejoin: miter"/>
   </g>
   <g id="patch_64">
    <path d="M 544.926 107.4375
L 565.4325 107.4375
L 565.4325 87.39
L 544.926 87.39
z
" clip-path="url(#p0dd43a27c8)" style="fill: #e0f2fe; stroke: #9ca3af; stroke-width: 0.8; stroke-linejoin: miter"/>
   </g>
   <g id="patch_65">
    <path d="M 462.9 127.485
L 483.4065 127.485
L 483.4065 107.4375
L 462.9 107.4375
z
" clip-path="url(#p0dd43a27c8)" style="fill: #ffffff; stroke: #9ca3af; stroke-width: 0.8; stroke-linejoin: miter"/>
   </g>
   <g id="patch_66">
    <path d="M 483.4065 127.485
L 503.913 127.485
L 503.913 107.4375
L 483.4065 107.4375
z
" clip-path="url(#p0dd43a27c8)" style="fill: #ffffff; stroke: #9ca3af; stroke-width: 0.8; stroke-linejoin: miter"/>
   </g>
   <g id="patch_67">
    <path d="M 503.913 127.485
L 524.4195 127.485
L 524.4195 107.4375
L 503.913 107.4375
z
" clip-path="url(#p0dd43a27c8)" style="fill: #ffffff; stroke: #9ca3af; stroke-width: 0.8; stroke-linejoin: miter"/>
   </g>
   <g id="patch_68">
    <path d="M 524.4195 127.485
L 544.926 127.485
L 544.926 107.4375
L 524.4195 107.4375
z
" clip-path="url(#p0dd43a27c8)" style="fill: #ffffff; stroke: #9ca3af; stroke-width: 0.8; stroke-linejoin: miter"/>
   </g>
   <g id="patch_69">
    <path d="M 544.926 127.485
L 565.4325 127.485
L 565.4325 107.4375
L 544.926 107.4375
z
" clip-path="url(#p0dd43a27c8)" style="fill: #ffffff; stroke: #9ca3af; stroke-width: 0.8; stroke-linejoin: miter"/>
   </g>
   <g id="patch_70">
    <path d="M 462.9 147.5325
L 483.4065 147.5325
L 483.4065 127.485
L 462.9 127.485
z
" clip-path="url(#p0dd43a27c8)" style="fill: #ffffff; stroke: #9ca3af; stroke-width: 0.8; stroke-linejoin: miter"/>
   </g>
   <g id="patch_71">
    <path d="M 483.4065 147.5325
L 503.913 147.5325
L 503.913 127.485
L 483.4065 127.485
z
" clip-path="url(#p0dd43a27c8)" style="fill: #ffffff; stroke: #9ca3af; stroke-width: 0.8; stroke-linejoin: miter"/>
   </g>
   <g id="patch_72">
    <path d="M 503.913 147.5325
L 524.4195 147.5325
L 524.4195 127.485
L 503.913 127.485
z
" clip-path="url(#p0dd43a27c8)" style="fill: #ffffff; stroke: #9ca3af; stroke-width: 0.8; stroke-linejoin: miter"/>
   </g>
   <g id="patch_73">
    <path d="M 524.4195 147.5325
L 544.926 147.5325
L 544.926 127.485
L 524.4195 127.485
z
" clip-path="url(#p0dd43a27c8)" style="fill: #ffffff; stroke: #9ca3af; stroke-width: 0.8; stroke-linejoin: miter"/>
   </g>
   <g id="patch_74">
    <path d="M 544.926 147.5325
L 565.4325 147.5325
L 565.4325 127.485
L 544.926 127.485
z
" clip-path="url(#p0dd43a27c8)" style="fill: #ffffff; stroke: #9ca3af; stroke-width: 0.8; stroke-linejoin: miter"/>
   </g>
   <g id="patch_75">
    <path d="M 462.9 147.5325
L 565.4325 147.5325
L 565.4325 47.295
L 462.9 47.295
L 462.9 147.5325
z
" clip-path="url(#p0dd43a27c8)" style="fill: none; stroke: #9467bd; stroke-width: 2; stroke-linejoin: miter"/>
   </g>
   <g id="text_1">
    <text style="font-weight: 700; font-size: 10px; font-family: 'DejaVu Sans'; fill: #1f77b4" transform="translate(47.474313 41.591)">Full table E</text>
    <text style="font-weight: 700; font-size: 10px; font-family: 'DejaVu Sans'; fill: #1f77b4" transform="translate(64.818063 52.788812)">V x d</text>
   </g>
   <g id="text_2">
    <text style="font-size: 8px; font-family: 'DejaVu Sans'; fill: #6b7280" transform="translate(43.83225 174.21425)">one independent</text>
    <text style="font-size: 8px; font-family: 'DejaVu Sans'; fill: #6b7280" transform="translate(50.18975 183.1725)">row per token</text>
   </g>
   <g id="text_3">
    <text style="font-weight: 700; font-size: 24px; font-family: 'DejaVu Sans'; text-anchor: middle" x="159.8595" y="122.97" transform="rotate(-0 159.8595 122.97)">=</text>
   </g>
   <g id="text_4">
    <text style="font-weight: 700; font-size: 10px; font-family: 'DejaVu Sans'; fill: #2ca02c" transform="translate(167.999781 41.591)">Latent codes A</text>
    <text style="font-weight: 700; font-size: 10px; font-family: 'DejaVu Sans'; fill: #2ca02c" transform="translate(196.945094 52.788812)">V x r</text>
   </g>
   <g id="text_5">
    <text style="font-size: 8px; font-family: 'DejaVu Sans'; fill: #6b7280" transform="translate(187.194625 178.66925)">token owns</text>
    <text style="font-size: 8px; font-family: 'DejaVu Sans'; fill: #6b7280" transform="translate(189.375875 187.6275)">r numbers</text>
   </g>
   <g id="text_6">
    <text style="font-weight: 700; font-size: 20px; font-family: 'DejaVu Sans'; text-anchor: middle" x="253.278" y="121.86625" transform="rotate(-0 253.278 121.86625)">x</text>
   </g>
   <g id="text_7">
    <text style="font-weight: 700; font-size: 10px; font-family: 'DejaVu Sans'; fill: #ff7f0e" transform="translate(275.976094 61.560375)">Shared projection B</text>
    <text style="font-weight: 700; font-size: 10px; font-family: 'DejaVu Sans'; fill: #ff7f0e" transform="translate(319.135469 72.836312)">r x d</text>
   </g>
   <g id="text_8">
    <text style="font-size: 8px; font-family: 'DejaVu Sans'; fill: #6b7280" transform="translate(306.492775 143.02925)">shared basis</text>
    <text style="font-size: 8px; font-family: 'DejaVu Sans'; fill: #6b7280" transform="translate(312.04715 151.9875)">directions</text>
   </g>
   <g id="text_9">
    <text style="font-weight: 700; font-size: 20px; font-family: 'DejaVu Sans'; text-anchor: middle" x="431.001" y="121.86625" transform="rotate(-0 431.001 121.86625)">-&gt;</text>
   </g>
   <g id="text_10">
    <text style="font-weight: 700; font-size: 10px; font-family: 'DejaVu Sans'; fill: #9467bd" transform="translate(464.632656 41.591)">Effective rows AB</text>
    <text style="font-weight: 700; font-size: 10px; font-family: 'DejaVu Sans'; fill: #9467bd" transform="translate(487.115469 52.788812)">rank &lt;= r</text>
   </g>
   <g id="text_11">
    <text style="font-size: 8px; font-family: 'DejaVu Sans'; text-anchor: middle; fill: #111827" x="199.5054" y="99.73275" transform="rotate(-0 199.5054 99.73275)">a_i1</text>
   </g>
   <g id="patch_76">
    <path d="M 201.394146 105.001974
Q 240.06293 91.622171 277.25251 78.754187
" style="fill: none; stroke: #6b7280; stroke-width: 1.4; stroke-linecap: round"/>
    <path d="M 272.818419 78.172089
L 277.25251 78.754187
L 274.126377 81.952201
" style="fill: none; stroke: #6b7280; stroke-width: 1.4; stroke-linecap: round"/>
   </g>
   <g id="text_12">
    <text style="font-size: 8px; font-family: 'DejaVu Sans'; text-anchor: middle; fill: #111827" x="220.0119" y="99.73275" transform="rotate(-0 220.0119 99.73275)">a_i2</text>
   </g>
   <g id="patch_77">
    <path d="M 221.990985 105.393649
Q 250.312478 101.646459 277.082246 98.104577
" style="fill: none; stroke: #6b7280; stroke-width: 1.4; stroke-linecap: round"/>
    <path d="M 272.854473 96.64652
L 277.082246 98.104577
L 273.379136 100.611961
" style="fill: none; stroke: #6b7280; stroke-width: 1.4; stroke-linecap: round"/>
   </g>
   <g id="patch_78">
    <path d="M 335.304 216.877287
Q 335.304 203.253927 335.304 189.630568
" style="fill: none; stroke: #9467bd; stroke-width: 1.4; stroke-linecap: round"/>
    <path d="M 402.804 182.430568
L 402.804 189.630568
L 267.804 189.630568
L 267.804 182.430568
" style="fill: none; stroke: #9467bd; stroke-width: 1.4; stroke-linecap: round"/>
   </g>
   <g id="text_13">
    <text style="font-size: 9px; font-family: 'DejaVu Sans'; text-anchor: middle; fill: #9467bd" x="335.304" y="227.7225" transform="rotate(-0 335.304 227.7225)">low-rank bottleneck: all token vectors are mixtures of the same r directions</text>
   </g>
  </g>
 </g>
 <defs>
  <clipPath id="p0dd43a27c8">
   <rect x="7.2" y="7.2" width="546.84" height="249.48"/>
  </clipPath>
 </defs>
</svg>
