<?xml version="1.0" encoding="utf-8" standalone="no"?>
<!DOCTYPE svg PUBLIC "-//W3C//DTD SVG 1.1//EN"
  "http://www.w3.org/Graphics/SVG/1.1/DTD/svg11.dtd">
<svg xmlns:xlink="http://www.w3.org/1999/xlink" width="620.479158pt" height="275.72798pt" viewBox="0 0 620.479158 275.72798" xmlns="http://www.w3.org/2000/svg" version="1.1">
 <metadata>
  <rdf:RDF xmlns:dc="http://purl.org/dc/elements/1.1/" xmlns:cc="http://creativecommons.org/ns#" xmlns:rdf="http://www.w3.org/1999/02/22-rdf-syntax-ns#">
   <cc:Work>
    <dc:type rdf:resource="http://purl.org/dc/dcmitype/StillImage"/>
    <dc:format>image/svg+xml</dc:format>
    <dc:creator>
     <cc:Agent>
      <dc:title>Matplotlib v3.10.9, https://matplotlib.org/</dc:title>
     </cc:Agent>
    </dc:creator>
   </cc:Work>
  </rdf:RDF>
 </metadata>
 <defs>
  <style type="text/css">*{stroke-linejoin: round; stroke-linecap: butt}</style>
 </defs>
 <g id="figure_1">
  <g id="patch_1">
   <path d="M 0 275.72798
L 620.479158 275.72798
L 620.479158 0
L 0 0
z
" style="fill: #ffffff"/>
  </g>
  <g id="axes_1">
   <g id="PathCollection_1">
    <defs>
     <path id="m61dc91a716" d="M 0 6.123724
C 1.624031 6.123724 3.181764 5.47849 4.330127 4.330127
C 5.47849 3.181764 6.123724 1.624031 6.123724 0
C 6.123724 -1.624031 5.47849 -3.181764 4.330127 -4.330127
C 3.181764 -5.47849 1.624031 -6.123724 0 -6.123724
C -1.624031 -6.123724 -3.181764 -5.47849 -4.330127 -4.330127
C -5.47849 -3.181764 -6.123724 -1.624031 -6.123724 0
C -6.123724 1.624031 -5.47849 3.181764 -4.330127 4.330127
C -3.181764 5.47849 -1.624031 6.123724 0 6.123724
z
" style="stroke: #ffffff"/>
    </defs>
    <g clip-path="url(#pb0b2679717)">
     <use xlink:href="#m61dc91a716" x="44.827586" y="122.110125" style="fill: #1f77b4; stroke: #ffffff"/>
    </g>
   </g>
   <g id="PathCollection_2">
    <g clip-path="url(#pb0b2679717)">
     <use xlink:href="#m61dc91a716" x="91.862069" y="63.898125" style="fill: #1f77b4; stroke: #ffffff"/>
    </g>
   </g>
   <g id="PathCollection_3">
    <g clip-path="url(#pb0b2679717)">
     <use xlink:href="#m61dc91a716" x="110.675862" y="147.058125" style="fill: #1f77b4; stroke: #ffffff"/>
    </g>
   </g>
   <g id="PathCollection_4">
    <defs>
     <path id="mc7513251cd" d="M 0 6.123724
C 1.624031 6.123724 3.181764 5.47849 4.330127 4.330127
C 5.47849 3.181764 6.123724 1.624031 6.123724 0
C 6.123724 -1.624031 5.47849 -3.181764 4.330127 -4.330127
C 3.181764 -5.47849 1.624031 -6.123724 0 -6.123724
C -1.624031 -6.123724 -3.181764 -5.47849 -4.330127 -4.330127
C -5.47849 -3.181764 -6.123724 -1.624031 -6.123724 0
C -6.123724 1.624031 -5.47849 3.181764 -4.330127 4.330127
C -3.181764 5.47849 -1.624031 6.123724 0 6.123724
z
" style="stroke: #ffffff"/>
    </defs>
    <g clip-path="url(#pb0b2679717)">
     <use xlink:href="#mc7513251cd" x="204.744828" y="80.530125" style="fill: #2ca02c; stroke: #ffffff"/>
    </g>
   </g>
   <g id="PathCollection_5">
    <g clip-path="url(#pb0b2679717)">
     <use xlink:href="#mc7513251cd" x="242.372414" y="155.374125" style="fill: #2ca02c; stroke: #ffffff"/>
    </g>
   </g>
   <g id="PathCollection_6">
    <g clip-path="url(#pb0b2679717)">
     <use xlink:href="#mc7513251cd" x="195.337931" y="196.954125" style="fill: #2ca02c; stroke: #ffffff"/>
    </g>
   </g>
   <g id="line2d_1">
    <path d="M 44.827586 122.110125
L 91.862069 63.898125
" clip-path="url(#pb0b2679717)" style="fill: none; stroke: #cbd5e1; stroke-width: 1.2; stroke-linecap: square"/>
   </g>
   <g id="line2d_2">
    <path d="M 44.827586 122.110125
L 110.675862 147.058125
" clip-path="url(#pb0b2679717)" style="fill: none; stroke: #cbd5e1; stroke-width: 1.2; stroke-linecap: square"/>
   </g>
   <g id="line2d_3">
    <path d="M 91.862069 63.898125
L 110.675862 147.058125
" clip-path="url(#pb0b2679717)" style="fill: none; stroke: #cbd5e1; stroke-width: 1.2; stroke-linecap: square"/>
   </g>
   <g id="line2d_4">
    <path d="M 204.744828 80.530125
L 242.372414 155.374125
" clip-path="url(#pb0b2679717)" style="fill: none; stroke: #cbd5e1; stroke-width: 1.2; stroke-linecap: square"/>
   </g>
   <g id="line2d_5">
    <path d="M 204.744828 80.530125
L 195.337931 196.954125
" clip-path="url(#pb0b2679717)" style="fill: none; stroke: #cbd5e1; stroke-width: 1.2; stroke-linecap: square"/>
   </g>
   <g id="line2d_6">
    <path d="M 242.372414 155.374125
L 195.337931 196.954125
" clip-path="url(#pb0b2679717)" style="fill: none; stroke: #cbd5e1; stroke-width: 1.2; stroke-linecap: square"/>
   </g>
   <g id="line2d_7">
    <path d="M 110.675862 147.058125
L 204.744828 80.530125
" clip-path="url(#pb0b2679717)" style="fill: none; stroke: #cbd5e1; stroke-width: 1.2; stroke-linecap: square"/>
   </g>
   <g id="text_1">
    <text style="font-weight: 700; font-size: 10px; font-family: 'DejaVu Sans'; text-anchor: middle; fill: #ffffff" x="44.827586" y="124.8695" transform="rotate(-0 44.827586 124.8695)">A</text>
   </g>
   <g id="text_2">
    <text style="font-weight: 700; font-size: 10px; font-family: 'DejaVu Sans'; text-anchor: middle; fill: #ffffff" x="91.862069" y="66.6575" transform="rotate(-0 91.862069 66.6575)">B</text>
   </g>
   <g id="text_3">
    <text style="font-weight: 700; font-size: 10px; font-family: 'DejaVu Sans'; text-anchor: middle; fill: #ffffff" x="110.675862" y="149.8175" transform="rotate(-0 110.675862 149.8175)">C</text>
   </g>
   <g id="text_4">
    <text style="font-weight: 700; font-size: 10px; font-family: 'DejaVu Sans'; text-anchor: middle; fill: #ffffff" x="204.744828" y="83.2895" transform="rotate(-0 204.744828 83.2895)">D</text>
   </g>
   <g id="text_5">
    <text style="font-weight: 700; font-size: 10px; font-family: 'DejaVu Sans'; text-anchor: middle; fill: #ffffff" x="242.372414" y="158.1335" transform="rotate(-0 242.372414 158.1335)">E</text>
   </g>
   <g id="text_6">
    <text style="font-weight: 700; font-size: 10px; font-family: 'DejaVu Sans'; text-anchor: middle; fill: #ffffff" x="195.337931" y="199.7135" transform="rotate(-0 195.337931 199.7135)">F</text>
   </g>
   <g id="text_7">
    <text style="font-size: 12px; font-family: 'DejaVu Sans'; text-anchor: middle" x="143.6" y="16.318125" transform="rotate(-0 143.6 16.318125)">Graph neighborhoods and bridges</text>
   </g>
  </g>
  <g id="axes_2">
   <g id="patch_2">
    <path d="M 355.920842 255.166125
L 613.279158 255.166125
L 613.279158 22.318125
L 355.920842 22.318125
z
" style="fill: #ffffff"/>
   </g>
   <g id="PathCollection_7">
    <defs>
     <path id="m4169f4fc15" d="M 0 4.743416
C 1.257969 4.743416 2.464584 4.24362 3.354102 3.354102
C 4.24362 2.464584 4.743416 1.257969 4.743416 0
C 4.743416 -1.257969 4.24362 -2.464584 3.354102 -3.354102
C 2.464584 -4.24362 1.257969 -4.743416 0 -4.743416
C -1.257969 -4.743416 -2.464584 -4.24362 -3.354102 -3.354102
C -4.24362 -2.464584 -4.743416 -1.257969 -4.743416 0
C -4.743416 1.257969 -4.24362 2.464584 -3.354102 3.354102
C -2.464584 4.24362 -1.257969 4.743416 0 4.743416
z
" style="stroke: #1f77b4"/>
    </defs>
    <g clip-path="url(#p361caf9b26)">
     <use xlink:href="#m4169f4fc15" x="367.618947" y="77.466336" style="fill: #1f77b4; stroke: #1f77b4"/>
     <use xlink:href="#m4169f4fc15" x="401.042105" y="32.902125" style="fill: #1f77b4; stroke: #1f77b4"/>
     <use xlink:href="#m4169f4fc15" x="428.894737" y="105.318967" style="fill: #1f77b4; stroke: #1f77b4"/>
    </g>
   </g>
   <g id="PathCollection_8">
    <defs>
     <path id="m3afbe79679" d="M 0 4.743416
C 1.257969 4.743416 2.464584 4.24362 3.354102 3.354102
C 4.24362 2.464584 4.743416 1.257969 4.743416 0
C 4.743416 -1.257969 4.24362 -2.464584 3.354102 -3.354102
C 2.464584 -4.24362 1.257969 -4.743416 0 -4.743416
C -1.257969 -4.743416 -2.464584 -4.24362 -3.354102 -3.354102
C -4.24362 -2.464584 -4.743416 -1.257969 -4.743416 0
C -4.743416 1.257969 -4.24362 2.464584 -3.354102 3.354102
C -2.464584 4.24362 -1.257969 4.743416 0 4.743416
z
" style="stroke: #2ca02c"/>
    </defs>
    <g clip-path="url(#p361caf9b26)">
     <use xlink:href="#m3afbe79679" x="568.157895" y="55.18423" style="fill: #2ca02c; stroke: #2ca02c"/>
     <use xlink:href="#m3afbe79679" x="601.581053" y="105.318967" style="fill: #2ca02c; stroke: #2ca02c"/>
     <use xlink:href="#m3afbe79679" x="540.305263" y="127.601072" style="fill: #2ca02c; stroke: #2ca02c"/>
    </g>
   </g>
   <g id="PathCollection_9">
    <defs>
     <path id="C0_0_55414badd7" d="M 0 4.472136
C 1.186024 4.472136 2.323632 4.000923 3.162278 3.162278
C 4.000923 2.323632 4.472136 1.186024 4.472136 -0
C 4.472136 -1.186024 4.000923 -2.323632 3.162278 -3.162278
C 2.323632 -4.000923 1.186024 -4.472136 0 -4.472136
C -1.186024 -4.472136 -2.323632 -4.000923 -3.162278 -3.162278
C -4.000923 -2.323632 -4.472136 -1.186024 -4.472136 0
C -4.472136 1.186024 -4.000923 2.323632 -3.162278 3.162278
C -2.323632 4.000923 -1.186024 4.472136 0 4.472136
z
"/>
    </defs>
    <g clip-path="url(#p361caf9b26)">
     <use xlink:href="#C0_0_55414badd7" x="389.901053" y="244.582125" style="fill: #ff7f0e; stroke: #ff7f0e"/>
    </g>
    <g clip-path="url(#p361caf9b26)">
     <use xlink:href="#C0_0_55414badd7" x="523.593684" y="183.306336" style="fill: #d62728; stroke: #d62728"/>
    </g>
   </g>
   <g id="matplotlib.axis_1"/>
   <g id="matplotlib.axis_2"/>
   <g id="patch_3">
    <path d="M 355.920842 255.166125
L 355.920842 22.318125
" style="fill: none; stroke: #000000; stroke-width: 0.8; stroke-linejoin: miter; stroke-linecap: square"/>
   </g>
   <g id="patch_4">
    <path d="M 613.279158 255.166125
L 613.279158 22.318125
" style="fill: none; stroke: #000000; stroke-width: 0.8; stroke-linejoin: miter; stroke-linecap: square"/>
   </g>
   <g id="patch_5">
    <path d="M 355.920842 255.166125
L 613.279158 255.166125
" style="fill: none; stroke: #000000; stroke-width: 0.8; stroke-linejoin: miter; stroke-linecap: square"/>
   </g>
   <g id="patch_6">
    <path d="M 355.920842 22.318125
L 613.279158 22.318125
" style="fill: none; stroke: #000000; stroke-width: 0.8; stroke-linejoin: miter; stroke-linecap: square"/>
   </g>
   <g id="patch_7">
    <path d="M 389.901053 244.582125
Q 456.747368 213.94423 521.35768 184.331171
" style="fill: none; stroke: #9467bd; stroke-width: 2.2; stroke-linecap: round"/>
    <path d="M 516.888112 184.17966
L 521.35768 184.331171
L 518.554731 187.815919
z
" style="fill: #9467bd; stroke: #9467bd; stroke-width: 2.2; stroke-linecap: round"/>
   </g>
   <g id="text_8">
    <text style="font-size: 8px; font-family: 'DejaVu Sans'; text-anchor: start" x="373.189474" y="266.86423" transform="rotate(-0 373.189474 266.86423)">head</text>
   </g>
   <g id="text_9">
    <text style="font-size: 8px; font-family: 'DejaVu Sans'; text-anchor: start" x="530.278316" y="183.306336" transform="rotate(-0 530.278316 183.306336)">tail</text>
   </g>
   <g id="text_10">
    <text style="font-size: 8px; font-family: 'DejaVu Sans'; text-anchor: start; fill: #9467bd" x="484.6" y="194.447388" transform="rotate(-0 484.6 194.447388)">relation vector</text>
   </g>
   <g id="text_11">
    <text style="font-size: 12px; font-family: 'DejaVu Sans'; text-anchor: middle" x="484.6" y="16.318125" transform="rotate(-0 484.6 16.318125)">Entity relation as translation</text>
   </g>
   <g id="legend_1">
    <g id="PathCollection_10">
     <g>
      <use xlink:href="#m4169f4fc15" x="538.934158" y="33.496875" style="fill: #1f77b4; stroke: #1f77b4"/>
     </g>
    </g>
    <g id="text_12">
     <text style="font-size: 8px; font-family: 'DejaVu Sans'; text-anchor: start" x="553.334158" y="35.596875" transform="rotate(-0 553.334158 35.596875)">community 1</text>
    </g>
    <g id="PathCollection_11">
     <g>
      <use xlink:href="#m3afbe79679" x="538.934158" y="45.239375" style="fill: #2ca02c; stroke: #2ca02c"/>
     </g>
    </g>
    <g id="text_13">
     <text style="font-size: 8px; font-family: 'DejaVu Sans'; text-anchor: start" x="553.334158" y="47.339375" transform="rotate(-0 553.334158 47.339375)">community 2</text>
    </g>
   </g>
  </g>
 </g>
 <defs>
  <clipPath id="pb0b2679717">
   <rect x="7.2" y="22.318125" width="272.8" height="232.848"/>
  </clipPath>
  <clipPath id="p361caf9b26">
   <rect x="355.920842" y="22.318125" width="257.358316" height="232.848"/>
  </clipPath>
 </defs>
</svg>
