<?xml version="1.0" encoding="utf-8" standalone="no"?>
<!DOCTYPE svg PUBLIC "-//W3C//DTD SVG 1.1//EN"
  "http://www.w3.org/Graphics/SVG/1.1/DTD/svg11.dtd">
<svg xmlns:xlink="http://www.w3.org/1999/xlink" width="710.42625pt" height="234.378937pt" viewBox="0 0 710.42625 234.378937" xmlns="http://www.w3.org/2000/svg" version="1.1">
 <metadata>
  <rdf:RDF xmlns:dc="http://purl.org/dc/elements/1.1/" xmlns:cc="http://creativecommons.org/ns#" xmlns:rdf="http://www.w3.org/1999/02/22-rdf-syntax-ns#">
   <cc:Work>
    <dc:type rdf:resource="http://purl.org/dc/dcmitype/StillImage"/>
    <dc:format>image/svg+xml</dc:format>
    <dc:creator>
     <cc:Agent>
      <dc:title>Matplotlib v3.10.9, https://matplotlib.org/</dc:title>
     </cc:Agent>
    </dc:creator>
   </cc:Work>
  </rdf:RDF>
 </metadata>
 <defs>
  <style type="text/css">*{stroke-linejoin: round; stroke-linecap: butt}</style>
 </defs>
 <g id="figure_1">
  <g id="patch_1">
   <path d="M 0 234.378937
L 710.42625 234.378937
L 710.42625 0
L 0 0
z
" style="fill: #ffffff"/>
  </g>
  <g id="axes_1">
   <g id="patch_2">
    <path d="M 33.62625 183.804734
L 179.191467 183.804734
L 179.191467 38.239516
L 33.62625 38.239516
z
" style="fill: #ffffff"/>
   </g>
   <g id="PathCollection_1">
    <defs>
     <path id="C0_0_f5290c1b38" d="M 0 4.1833
C 1.109424 4.1833 2.173559 3.742521 2.95804 2.95804
C 3.742521 2.173559 4.1833 1.109424 4.1833 -0
C 4.1833 -1.109424 3.742521 -2.173559 2.95804 -2.95804
C 2.173559 -3.742521 1.109424 -4.1833 0 -4.1833
C -1.109424 -4.1833 -2.173559 -3.742521 -2.95804 -2.95804
C -3.742521 -2.173559 -4.1833 -1.109424 -4.1833 0
C -4.1833 1.109424 -3.742521 2.173559 -2.95804 2.95804
C -2.173559 3.742521 -1.109424 4.1833 0 4.1833
z
"/>
    </defs>
    <g clip-path="url(#paadee3f53f)">
     <use xlink:href="#C0_0_f5290c1b38" x="60.919728" y="156.511255" style="fill: #d62728; stroke: #ffffff"/>
    </g>
    <g clip-path="url(#paadee3f53f)">
     <use xlink:href="#C0_0_f5290c1b38" x="60.919728" y="65.532995" style="fill: #2ca02c; stroke: #ffffff"/>
    </g>
    <g clip-path="url(#paadee3f53f)">
     <use xlink:href="#C0_0_f5290c1b38" x="151.897989" y="156.511255" style="fill: #2ca02c; stroke: #ffffff"/>
    </g>
    <g clip-path="url(#paadee3f53f)">
     <use xlink:href="#C0_0_f5290c1b38" x="151.897989" y="65.532995" style="fill: #d62728; stroke: #ffffff"/>
    </g>
   </g>
   <g id="matplotlib.axis_1">
    <g id="xtick_1">
     <g id="line2d_1">
      <defs>
       <path id="m3745ae70e3" d="M 0 0
L 0 3.5
" style="stroke: #000000; stroke-width: 0.8"/>
      </defs>
      <g>
       <use xlink:href="#m3745ae70e3" x="60.919728" y="183.804734" style="stroke: #000000; stroke-width: 0.8"/>
      </g>
     </g>
     <g id="text_1">
      <text style="font-size: 8px; font-family: 'DejaVu Sans'; text-anchor: middle" x="60.919728" y="196.883484" transform="rotate(-0 60.919728 196.883484)">−1</text>
     </g>
    </g>
    <g id="xtick_2">
     <g id="line2d_2">
      <g>
       <use xlink:href="#m3745ae70e3" x="106.408859" y="183.804734" style="stroke: #000000; stroke-width: 0.8"/>
      </g>
     </g>
     <g id="text_2">
      <text style="font-size: 8px; font-family: 'DejaVu Sans'; text-anchor: middle" x="106.408859" y="196.883484" transform="rotate(-0 106.408859 196.883484)">0</text>
     </g>
    </g>
    <g id="xtick_3">
     <g id="line2d_3">
      <g>
       <use xlink:href="#m3745ae70e3" x="151.897989" y="183.804734" style="stroke: #000000; stroke-width: 0.8"/>
      </g>
     </g>
     <g id="text_3">
      <text style="font-size: 8px; font-family: 'DejaVu Sans'; text-anchor: middle" x="151.897989" y="196.883484" transform="rotate(-0 151.897989 196.883484)">1</text>
     </g>
    </g>
   </g>
   <g id="matplotlib.axis_2">
    <g id="ytick_1">
     <g id="line2d_4">
      <defs>
       <path id="m095a492e84" d="M 0 0
L -3.5 0
" style="stroke: #000000; stroke-width: 0.8"/>
      </defs>
      <g>
       <use xlink:href="#m095a492e84" x="33.62625" y="179.255821" style="stroke: #000000; stroke-width: 0.8"/>
      </g>
     </g>
     <g id="text_4">
      <text style="font-size: 8px; font-family: 'DejaVu Sans'; text-anchor: end" x="26.62625" y="182.295196" transform="rotate(-0 26.62625 182.295196)">−1.5</text>
     </g>
    </g>
    <g id="ytick_2">
     <g id="line2d_5">
      <g>
       <use xlink:href="#m095a492e84" x="33.62625" y="156.511255" style="stroke: #000000; stroke-width: 0.8"/>
      </g>
     </g>
     <g id="text_5">
      <text style="font-size: 8px; font-family: 'DejaVu Sans'; text-anchor: end" x="26.62625" y="159.55063" transform="rotate(-0 26.62625 159.55063)">−1.0</text>
     </g>
    </g>
    <g id="ytick_3">
     <g id="line2d_6">
      <g>
       <use xlink:href="#m095a492e84" x="33.62625" y="133.76669" style="stroke: #000000; stroke-width: 0.8"/>
      </g>
     </g>
     <g id="text_6">
      <text style="font-size: 8px; font-family: 'DejaVu Sans'; text-anchor: end" x="26.62625" y="136.806065" transform="rotate(-0 26.62625 136.806065)">−0.5</text>
     </g>
    </g>
    <g id="ytick_4">
     <g id="line2d_7">
      <g>
       <use xlink:href="#m095a492e84" x="33.62625" y="111.022125" style="stroke: #000000; stroke-width: 0.8"/>
      </g>
     </g>
     <g id="text_7">
      <text style="font-size: 8px; font-family: 'DejaVu Sans'; text-anchor: end" x="26.62625" y="114.0615" transform="rotate(-0 26.62625 114.0615)">0.0</text>
     </g>
    </g>
    <g id="ytick_5">
     <g id="line2d_8">
      <g>
       <use xlink:href="#m095a492e84" x="33.62625" y="88.27756" style="stroke: #000000; stroke-width: 0.8"/>
      </g>
     </g>
     <g id="text_8">
      <text style="font-size: 8px; font-family: 'DejaVu Sans'; text-anchor: end" x="26.62625" y="91.316935" transform="rotate(-0 26.62625 91.316935)">0.5</text>
     </g>
    </g>
    <g id="ytick_6">
     <g id="line2d_9">
      <g>
       <use xlink:href="#m095a492e84" x="33.62625" y="65.532995" style="stroke: #000000; stroke-width: 0.8"/>
      </g>
     </g>
     <g id="text_9">
      <text style="font-size: 8px; font-family: 'DejaVu Sans'; text-anchor: end" x="26.62625" y="68.57237" transform="rotate(-0 26.62625 68.57237)">1.0</text>
     </g>
    </g>
    <g id="ytick_7">
     <g id="line2d_10">
      <g>
       <use xlink:href="#m095a492e84" x="33.62625" y="42.788429" style="stroke: #000000; stroke-width: 0.8"/>
      </g>
     </g>
     <g id="text_10">
      <text style="font-size: 8px; font-family: 'DejaVu Sans'; text-anchor: end" x="26.62625" y="45.827804" transform="rotate(-0 26.62625 45.827804)">1.5</text>
     </g>
    </g>
   </g>
   <g id="line2d_11">
    <path d="M 33.62625 111.022125
L 179.191467 111.022125
" clip-path="url(#paadee3f53f)" style="fill: none; stroke: #d1d5db; stroke-width: 1.5; stroke-linecap: square"/>
   </g>
   <g id="line2d_12">
    <path d="M 106.408859 183.804734
L 106.408859 38.239516
" clip-path="url(#paadee3f53f)" style="fill: none; stroke: #d1d5db; stroke-width: 1.5; stroke-linecap: square"/>
   </g>
   <g id="patch_3">
    <path d="M 33.62625 183.804734
L 33.62625 38.239516
" style="fill: none; stroke: #000000; stroke-width: 0.8; stroke-linejoin: miter; stroke-linecap: square"/>
   </g>
   <g id="patch_4">
    <path d="M 179.191467 183.804734
L 179.191467 38.239516
" style="fill: none; stroke: #000000; stroke-width: 0.8; stroke-linejoin: miter; stroke-linecap: square"/>
   </g>
   <g id="patch_5">
    <path d="M 33.62625 183.804734
L 179.191467 183.804734
" style="fill: none; stroke: #000000; stroke-width: 0.8; stroke-linejoin: miter; stroke-linecap: square"/>
   </g>
   <g id="patch_6">
    <path d="M 33.62625 38.239516
L 179.191467 38.239516
" style="fill: none; stroke: #000000; stroke-width: 0.8; stroke-linejoin: miter; stroke-linecap: square"/>
   </g>
   <g id="text_11">
    <text style="font-size: 12px; font-family: 'DejaVu Sans'; text-anchor: middle" x="106.408859" y="32.239516" transform="rotate(-0 106.408859 32.239516)">XOR in 2D</text>
   </g>
  </g>
  <g id="axes_2">
   <g id="patch_7">
    <path d="M 208.304511 199.726125
L 353.869728 199.726125
L 353.869728 22.318125
L 208.304511 22.318125
z
" style="fill: #ffffff"/>
   </g>
   <g id="PathCollection_2">
    <defs>
     <path id="C1_0_f5290c1b38" d="M 0 4.1833
C 1.109424 4.1833 2.173559 3.742521 2.95804 2.95804
C 3.742521 2.173559 4.1833 1.109424 4.1833 -0
C 4.1833 -1.109424 3.742521 -2.173559 2.95804 -2.95804
C 2.173559 -3.742521 1.109424 -4.1833 0 -4.1833
C -1.109424 -4.1833 -2.173559 -3.742521 -2.95804 -2.95804
C -3.742521 -2.173559 -4.1833 -1.109424 -4.1833 0
C -4.1833 1.109424 -3.742521 2.173559 -2.95804 2.95804
C -2.173559 3.742521 -1.109424 4.1833 0 4.1833
z
"/>
    </defs>
    <g clip-path="url(#p1b30af7497)">
     <use xlink:href="#C1_0_f5290c1b38" x="235.597989" y="127.150125" style="fill: #d62728; stroke: #ffffff"/>
    </g>
    <g clip-path="url(#p1b30af7497)">
     <use xlink:href="#C1_0_f5290c1b38" x="235.597989" y="127.150125" style="fill: #2ca02c; stroke: #ffffff"/>
    </g>
    <g clip-path="url(#p1b30af7497)">
     <use xlink:href="#C1_0_f5290c1b38" x="326.57625" y="127.150125" style="fill: #2ca02c; stroke: #ffffff"/>
    </g>
    <g clip-path="url(#p1b30af7497)">
     <use xlink:href="#C1_0_f5290c1b38" x="326.57625" y="127.150125" style="fill: #d62728; stroke: #ffffff"/>
    </g>
   </g>
   <g id="matplotlib.axis_3">
    <g id="xtick_4">
     <g id="line2d_13">
      <g>
       <use xlink:href="#m3745ae70e3" x="235.597989" y="199.726125" style="stroke: #000000; stroke-width: 0.8"/>
      </g>
     </g>
     <g id="text_12">
      <text style="font-size: 8px; font-family: 'DejaVu Sans'; text-anchor: middle" x="235.597989" y="212.804875" transform="rotate(-0 235.597989 212.804875)">−1</text>
     </g>
    </g>
    <g id="xtick_5">
     <g id="line2d_14">
      <g>
       <use xlink:href="#m3745ae70e3" x="281.08712" y="199.726125" style="stroke: #000000; stroke-width: 0.8"/>
      </g>
     </g>
     <g id="text_13">
      <text style="font-size: 8px; font-family: 'DejaVu Sans'; text-anchor: middle" x="281.08712" y="212.804875" transform="rotate(-0 281.08712 212.804875)">0</text>
     </g>
    </g>
    <g id="xtick_6">
     <g id="line2d_15">
      <g>
       <use xlink:href="#m3745ae70e3" x="326.57625" y="199.726125" style="stroke: #000000; stroke-width: 0.8"/>
      </g>
     </g>
     <g id="text_14">
      <text style="font-size: 8px; font-family: 'DejaVu Sans'; text-anchor: middle" x="326.57625" y="212.804875" transform="rotate(-0 326.57625 212.804875)">1</text>
     </g>
    </g>
   </g>
   <g id="matplotlib.axis_4"/>
   <g id="line2d_16">
    <path d="M 208.304511 127.150125
L 353.869728 127.150125
" clip-path="url(#p1b30af7497)" style="fill: none; stroke: #d1d5db; stroke-width: 1.5; stroke-linecap: square"/>
   </g>
   <g id="patch_8">
    <path d="M 208.304511 199.726125
L 208.304511 22.318125
" style="fill: none; stroke: #000000; stroke-width: 0.8; stroke-linejoin: miter; stroke-linecap: square"/>
   </g>
   <g id="patch_9">
    <path d="M 353.869728 199.726125
L 353.869728 22.318125
" style="fill: none; stroke: #000000; stroke-width: 0.8; stroke-linejoin: miter; stroke-linecap: square"/>
   </g>
   <g id="patch_10">
    <path d="M 208.304511 199.726125
L 353.869728 199.726125
" style="fill: none; stroke: #000000; stroke-width: 0.8; stroke-linejoin: miter; stroke-linecap: square"/>
   </g>
   <g id="patch_11">
    <path d="M 208.304511 22.318125
L 353.869728 22.318125
" style="fill: none; stroke: #000000; stroke-width: 0.8; stroke-linejoin: miter; stroke-linecap: square"/>
   </g>
   <g id="text_15">
    <text style="font-size: 8px; font-family: 'DejaVu Sans'; fill: #6b7280" transform="translate(214.754864 89.161475)">two points</text>
    <text style="font-size: 8px; font-family: 'DejaVu Sans'; fill: #6b7280" transform="translate(219.192989 98.119725)">collapse</text>
   </g>
   <g id="text_16">
    <text style="font-size: 8px; font-family: 'DejaVu Sans'; fill: #6b7280" transform="translate(305.733125 89.161475)">two points</text>
    <text style="font-size: 8px; font-family: 'DejaVu Sans'; fill: #6b7280" transform="translate(310.17125 98.119725)">collapse</text>
   </g>
   <g id="text_17">
    <text style="font-size: 12px; font-family: 'DejaVu Sans'; text-anchor: middle" x="281.08712" y="16.318125" transform="rotate(-0 281.08712 16.318125)">1D projection</text>
   </g>
  </g>
  <g id="axes_3">
   <g id="patch_12">
    <path d="M 382.982772 183.804734
L 528.547989 183.804734
L 528.547989 38.239516
L 382.982772 38.239516
z
" style="fill: #ffffff"/>
   </g>
   <g id="QuadContourSet_1">
    <path d="M 384.453127 183.804734
L 385.923483 183.804734
L 387.393839 183.804734
L 388.864195 183.804734
L 390.33455 183.804734
L 391.804906 183.804734
L 393.275262 183.804734
L 394.745618 183.804734
L 396.215973 183.804734
L 397.686329 183.804734
L 399.156685 183.804734
L 400.627041 183.804734
L 402.097396 183.804734
L 403.567752 183.804734
L 405.038108 183.804734
L 406.508463 183.804734
L 407.978819 183.804734
L 409.449175 183.804734
L 410.919531 183.804734
L 412.389886 183.804734
L 413.860242 183.804734
L 415.330598 183.804734
L 416.800954 183.804734
L 418.271309 183.804734
L 419.741665 183.804734
L 421.212021 183.804734
L 422.682376 183.804734
L 424.152732 183.804734
L 425.623088 183.804734
L 427.093444 183.804734
L 428.563799 183.804734
L 430.034155 183.804734
L 431.504511 183.804734
L 432.974867 183.804734
L 434.445222 183.804734
L 435.915578 183.804734
L 437.385934 183.804734
L 438.85629 183.804734
L 440.326645 183.804734
L 441.797001 183.804734
L 443.267357 183.804734
L 444.737712 183.804734
L 446.208068 183.804734
L 447.678424 183.804734
L 449.14878 183.804734
L 450.619135 183.804734
L 452.089491 183.804734
L 453.559847 183.804734
L 455.030203 183.804734
L 456.500558 183.804734
L 457.970914 183.804734
L 459.44127 183.804734
L 460.911625 183.804734
L 462.381981 183.804734
L 463.852337 183.804734
L 465.322693 183.804734
L 466.793048 183.804734
L 468.263404 183.804734
L 469.73376 183.804734
L 471.204116 183.804734
L 472.674471 183.804734
L 474.144827 183.804734
L 475.615183 183.804734
L 477.085539 183.804734
L 478.555894 183.804734
L 480.02625 183.804734
L 481.496606 183.804734
L 482.966961 183.804734
L 484.437317 183.804734
L 485.907673 183.804734
L 487.378029 183.804734
L 488.848384 183.804734
L 490.31874 183.804734
L 491.789096 183.804734
L 493.259452 183.804734
L 494.729807 183.804734
L 496.200163 183.804734
L 497.670519 183.804734
L 499.140875 183.804734
L 500.61123 183.804734
L 502.081586 183.804734
L 503.551942 183.804734
L 505.022297 183.804734
L 506.492653 183.804734
L 507.963009 183.804734
L 509.433365 183.804734
L 510.90372 183.804734
L 512.374076 183.804734
L 513.844432 183.804734
L 515.314788 183.804734
L 516.785143 183.804734
L 518.255499 183.804734
L 519.725855 183.804734
L 521.19621 183.804734
L 522.666566 183.804734
L 524.136922 183.804734
L 525.607278 183.804734
L 527.077633 183.804734
L 528.547989 183.804734
L 528.547989 183.069556
L 527.812811 182.334378
L 527.077633 181.5992
L 526.342456 180.864022
L 525.607278 180.128844
L 524.8721 179.393667
L 524.136922 178.658489
L 523.401744 177.923311
L 522.666566 177.188133
L 521.931388 176.452955
L 521.19621 175.717777
L 520.461033 174.982599
L 519.725855 174.247421
L 518.990677 173.512244
L 518.255499 172.777066
L 517.520321 172.041888
L 516.785143 171.30671
L 516.049965 170.571532
L 515.314788 169.836354
L 514.57961 169.101176
L 513.844432 168.365999
L 513.109254 167.630821
L 512.374076 166.895643
L 511.638898 166.160465
L 510.90372 165.425287
L 510.168542 164.690109
L 509.433365 163.954931
L 508.698187 163.219753
L 507.963009 162.484576
L 507.227831 161.749398
L 506.492653 161.01422
L 505.757475 160.279042
L 505.022297 159.543864
L 504.28712 158.808686
L 503.551942 158.073508
L 502.816764 157.338331
L 502.081586 156.603153
L 501.346408 155.867975
L 500.61123 155.132797
L 499.876052 154.397619
L 499.140875 153.662441
L 498.405697 152.927263
L 497.670519 152.192085
L 496.935341 151.456908
L 496.200163 150.72173
L 495.464985 149.986552
L 494.729807 149.251374
L 493.994629 148.516196
L 493.259452 147.781018
L 492.524274 147.04584
L 491.789096 146.310663
L 491.053918 145.575485
L 490.31874 144.840307
L 489.583562 144.105129
L 488.848384 143.369951
L 488.113207 142.634773
L 487.378029 141.899595
L 486.642851 141.164417
L 485.907673 140.42924
L 485.172495 139.694062
L 484.437317 138.958884
L 483.702139 138.223706
L 482.966961 137.488528
L 482.231784 136.75335
L 481.496606 136.018172
L 480.761428 135.282995
L 480.02625 134.547817
L 479.291072 133.812639
L 478.555894 133.077461
L 477.820716 132.342283
L 477.085539 131.607105
L 476.350361 130.871927
L 475.615183 130.13675
L 474.880005 129.401572
L 474.144827 128.666394
L 473.409649 127.931216
L 472.674471 127.196038
L 471.939293 126.46086
L 471.204116 125.725682
L 470.468938 124.990504
L 469.73376 124.255327
L 468.998582 123.520149
L 468.263404 122.784971
L 467.528226 122.049793
L 466.793048 121.314615
L 466.057871 120.579437
L 465.322693 119.844259
L 464.587515 119.109082
L 463.852337 118.373904
L 463.117159 117.638726
L 462.381981 116.903548
L 461.646803 116.16837
L 460.911625 115.433192
L 460.176448 114.698014
L 459.44127 113.962836
L 458.706092 113.227659
L 457.970914 112.492481
L 457.235736 111.757303
L 456.500558 111.022125
L 455.76538 110.286947
L 455.030203 109.551769
L 454.295025 108.816591
L 453.559847 108.081414
L 452.824669 107.346236
L 452.089491 106.611058
L 451.354313 105.87588
L 450.619135 105.140702
L 449.883958 104.405524
L 449.14878 103.670346
L 448.413602 102.935168
L 447.678424 102.199991
L 446.943246 101.464813
L 446.208068 100.729635
L 445.47289 99.994457
L 444.737712 99.259279
L 444.002535 98.524101
L 443.267357 97.788923
L 442.532179 97.053746
L 441.797001 96.318568
L 441.061823 95.58339
L 440.326645 94.848212
L 439.591467 94.113034
L 438.85629 93.377856
L 438.121112 92.642678
L 437.385934 91.9075
L 436.650756 91.172323
L 435.915578 90.437145
L 435.1804 89.701967
L 434.445222 88.966789
L 433.710044 88.231611
L 432.974867 87.496433
L 432.239689 86.761255
L 431.504511 86.026078
L 430.769333 85.2909
L 430.034155 84.555722
L 429.298977 83.820544
L 428.563799 83.085366
L 427.828622 82.350188
L 427.093444 81.61501
L 426.358266 80.879833
L 425.623088 80.144655
L 424.88791 79.409477
L 424.152732 78.674299
L 423.417554 77.939121
L 422.682376 77.203943
L 421.947199 76.468765
L 421.212021 75.733587
L 420.476843 74.99841
L 419.741665 74.263232
L 419.006487 73.528054
L 418.271309 72.792876
L 417.536131 72.057698
L 416.800954 71.32252
L 416.065776 70.587342
L 415.330598 69.852165
L 414.59542 69.116987
L 413.860242 68.381809
L 413.125064 67.646631
L 412.389886 66.911453
L 411.654708 66.176275
L 410.919531 65.441097
L 410.184353 64.705919
L 409.449175 63.970742
L 408.713997 63.235564
L 407.978819 62.500386
L 407.243641 61.765208
L 406.508463 61.03003
L 405.773286 60.294852
L 405.038108 59.559674
L 404.30293 58.824497
L 403.567752 58.089319
L 402.832574 57.354141
L 402.097396 56.618963
L 401.362218 55.883785
L 400.627041 55.148607
L 399.891863 54.413429
L 399.156685 53.678251
L 398.421507 52.943074
L 397.686329 52.207896
L 396.951151 51.472718
L 396.215973 50.73754
L 395.480795 50.002362
L 394.745618 49.267184
L 394.01044 48.532006
L 393.275262 47.796829
L 392.540084 47.061651
L 391.804906 46.326473
L 391.069728 45.591295
L 390.33455 44.856117
L 389.599373 44.120939
L 388.864195 43.385761
L 388.129017 42.650583
L 387.393839 41.915406
L 386.658661 41.180228
L 385.923483 40.44505
L 385.188305 39.709872
L 384.453127 38.974694
L 383.71795 38.239516
L 382.982772 38.239516
L 382.982772 39.709872
L 382.982772 41.180228
L 382.982772 42.650583
L 382.982772 44.120939
L 382.982772 45.591295
L 382.982772 47.061651
L 382.982772 48.532006
L 382.982772 50.002362
L 382.982772 51.472718
L 382.982772 52.943074
L 382.982772 54.413429
L 382.982772 55.883785
L 382.982772 57.354141
L 382.982772 58.824497
L 382.982772 60.294852
L 382.982772 61.765208
L 382.982772 63.235564
L 382.982772 64.705919
L 382.982772 66.176275
L 382.982772 67.646631
L 382.982772 69.116987
L 382.982772 70.587342
L 382.982772 72.057698
L 382.982772 73.528054
L 382.982772 74.99841
L 382.982772 76.468765
L 382.982772 77.939121
L 382.982772 79.409477
L 382.982772 80.879833
L 382.982772 82.350188
L 382.982772 83.820544
L 382.982772 85.2909
L 382.982772 86.761255
L 382.982772 88.231611
L 382.982772 89.701967
L 382.982772 91.172323
L 382.982772 92.642678
L 382.982772 94.113034
L 382.982772 95.58339
L 382.982772 97.053746
L 382.982772 98.524101
L 382.982772 99.994457
L 382.982772 101.464813
L 382.982772 102.935168
L 382.982772 104.405524
L 382.982772 105.87588
L 382.982772 107.346236
L 382.982772 108.816591
L 382.982772 110.286947
L 382.982772 111.757303
L 382.982772 113.227659
L 382.982772 114.698014
L 382.982772 116.16837
L 382.982772 117.638726
L 382.982772 119.109082
L 382.982772 120.579437
L 382.982772 122.049793
L 382.982772 123.520149
L 382.982772 124.990504
L 382.982772 126.46086
L 382.982772 127.931216
L 382.982772 129.401572
L 382.982772 130.871927
L 382.982772 132.342283
L 382.982772 133.812639
L 382.982772 135.282995
L 382.982772 136.75335
L 382.982772 138.223706
L 382.982772 139.694062
L 382.982772 141.164417
L 382.982772 142.634773
L 382.982772 144.105129
L 382.982772 145.575485
L 382.982772 147.04584
L 382.982772 148.516196
L 382.982772 149.986552
L 382.982772 151.456908
L 382.982772 152.927263
L 382.982772 154.397619
L 382.982772 155.867975
L 382.982772 157.338331
L 382.982772 158.808686
L 382.982772 160.279042
L 382.982772 161.749398
L 382.982772 163.219753
L 382.982772 164.690109
L 382.982772 166.160465
L 382.982772 167.630821
L 382.982772 169.101176
L 382.982772 170.571532
L 382.982772 172.041888
L 382.982772 173.512244
L 382.982772 174.982599
L 382.982772 176.452955
L 382.982772 177.923311
L 382.982772 179.393667
L 382.982772 180.864022
L 382.982772 182.334378
L 382.982772 183.804734
z
" clip-path="url(#p5fc5f5b736)" style="fill: #f3f4f6"/>
    <path d="M 528.547989 183.069556
L 528.547989 182.334378
L 528.547989 180.864022
L 528.547989 179.393667
L 528.547989 177.923311
L 528.547989 176.452955
L 528.547989 174.982599
L 528.547989 173.512244
L 528.547989 172.041888
L 528.547989 170.571532
L 528.547989 169.101176
L 528.547989 167.630821
L 528.547989 166.160465
L 528.547989 164.690109
L 528.547989 163.219753
L 528.547989 161.749398
L 528.547989 160.279042
L 528.547989 158.808686
L 528.547989 157.338331
L 528.547989 155.867975
L 528.547989 154.397619
L 528.547989 152.927263
L 528.547989 151.456908
L 528.547989 149.986552
L 528.547989 148.516196
L 528.547989 147.04584
L 528.547989 145.575485
L 528.547989 144.105129
L 528.547989 142.634773
L 528.547989 141.164417
L 528.547989 139.694062
L 528.547989 138.223706
L 528.547989 136.75335
L 528.547989 135.282995
L 528.547989 133.812639
L 528.547989 132.342283
L 528.547989 130.871927
L 528.547989 129.401572
L 528.547989 127.931216
L 528.547989 126.46086
L 528.547989 124.990504
L 528.547989 123.520149
L 528.547989 122.049793
L 528.547989 120.579437
L 528.547989 119.109082
L 528.547989 117.638726
L 528.547989 116.16837
L 528.547989 114.698014
L 528.547989 113.227659
L 528.547989 111.757303
L 528.547989 110.286947
L 528.547989 108.816591
L 528.547989 107.346236
L 528.547989 105.87588
L 528.547989 104.405524
L 528.547989 102.935168
L 528.547989 101.464813
L 528.547989 99.994457
L 528.547989 98.524101
L 528.547989 97.053746
L 528.547989 95.58339
L 528.547989 94.113034
L 528.547989 92.642678
L 528.547989 91.172323
L 528.547989 89.701967
L 528.547989 88.231611
L 528.547989 86.761255
L 528.547989 85.2909
L 528.547989 83.820544
L 528.547989 82.350188
L 528.547989 80.879833
L 528.547989 79.409477
L 528.547989 77.939121
L 528.547989 76.468765
L 528.547989 74.99841
L 528.547989 73.528054
L 528.547989 72.057698
L 528.547989 70.587342
L 528.547989 69.116987
L 528.547989 67.646631
L 528.547989 66.176275
L 528.547989 64.705919
L 528.547989 63.235564
L 528.547989 61.765208
L 528.547989 60.294852
L 528.547989 58.824497
L 528.547989 57.354141
L 528.547989 55.883785
L 528.547989 54.413429
L 528.547989 52.943074
L 528.547989 51.472718
L 528.547989 50.002362
L 528.547989 48.532006
L 528.547989 47.061651
L 528.547989 45.591295
L 528.547989 44.120939
L 528.547989 42.650583
L 528.547989 41.180228
L 528.547989 39.709872
L 528.547989 38.239516
L 527.077633 38.239516
L 525.607278 38.239516
L 524.136922 38.239516
L 522.666566 38.239516
L 521.19621 38.239516
L 519.725855 38.239516
L 518.255499 38.239516
L 516.785143 38.239516
L 515.314788 38.239516
L 513.844432 38.239516
L 512.374076 38.239516
L 510.90372 38.239516
L 509.433365 38.239516
L 507.963009 38.239516
L 506.492653 38.239516
L 505.022297 38.239516
L 503.551942 38.239516
L 502.081586 38.239516
L 500.61123 38.239516
L 499.140875 38.239516
L 497.670519 38.239516
L 496.200163 38.239516
L 494.729807 38.239516
L 493.259452 38.239516
L 491.789096 38.239516
L 490.31874 38.239516
L 488.848384 38.239516
L 487.378029 38.239516
L 485.907673 38.239516
L 484.437317 38.239516
L 482.966961 38.239516
L 481.496606 38.239516
L 480.02625 38.239516
L 478.555894 38.239516
L 477.085539 38.239516
L 475.615183 38.239516
L 474.144827 38.239516
L 472.674471 38.239516
L 471.204116 38.239516
L 469.73376 38.239516
L 468.263404 38.239516
L 466.793048 38.239516
L 465.322693 38.239516
L 463.852337 38.239516
L 462.381981 38.239516
L 460.911625 38.239516
L 459.44127 38.239516
L 457.970914 38.239516
L 456.500558 38.239516
L 455.030203 38.239516
L 453.559847 38.239516
L 452.089491 38.239516
L 450.619135 38.239516
L 449.14878 38.239516
L 447.678424 38.239516
L 446.208068 38.239516
L 444.737712 38.239516
L 443.267357 38.239516
L 441.797001 38.239516
L 440.326645 38.239516
L 438.85629 38.239516
L 437.385934 38.239516
L 435.915578 38.239516
L 434.445222 38.239516
L 432.974867 38.239516
L 431.504511 38.239516
L 430.034155 38.239516
L 428.563799 38.239516
L 427.093444 38.239516
L 425.623088 38.239516
L 424.152732 38.239516
L 422.682376 38.239516
L 421.212021 38.239516
L 419.741665 38.239516
L 418.271309 38.239516
L 416.800954 38.239516
L 415.330598 38.239516
L 413.860242 38.239516
L 412.389886 38.239516
L 410.919531 38.239516
L 409.449175 38.239516
L 407.978819 38.239516
L 406.508463 38.239516
L 405.038108 38.239516
L 403.567752 38.239516
L 402.097396 38.239516
L 400.627041 38.239516
L 399.156685 38.239516
L 397.686329 38.239516
L 396.215973 38.239516
L 394.745618 38.239516
L 393.275262 38.239516
L 391.804906 38.239516
L 390.33455 38.239516
L 388.864195 38.239516
L 387.393839 38.239516
L 385.923483 38.239516
L 384.453127 38.239516
L 383.71795 38.239516
L 384.453127 38.974694
L 385.188305 39.709872
L 385.923483 40.44505
L 386.658661 41.180228
L 387.393839 41.915406
L 388.129017 42.650583
L 388.864195 43.385761
L 389.599373 44.120939
L 390.33455 44.856117
L 391.069728 45.591295
L 391.804906 46.326473
L 392.540084 47.061651
L 393.275262 47.796829
L 394.01044 48.532006
L 394.745618 49.267184
L 395.480795 50.002362
L 396.215973 50.73754
L 396.951151 51.472718
L 397.686329 52.207896
L 398.421507 52.943074
L 399.156685 53.678251
L 399.891863 54.413429
L 400.627041 55.148607
L 401.362218 55.883785
L 402.097396 56.618963
L 402.832574 57.354141
L 403.567752 58.089319
L 404.30293 58.824497
L 405.038108 59.559674
L 405.773286 60.294852
L 406.508463 61.03003
L 407.243641 61.765208
L 407.978819 62.500386
L 408.713997 63.235564
L 409.449175 63.970742
L 410.184353 64.705919
L 410.919531 65.441097
L 411.654708 66.176275
L 412.389886 66.911453
L 413.125064 67.646631
L 413.860242 68.381809
L 414.59542 69.116987
L 415.330598 69.852165
L 416.065776 70.587342
L 416.800954 71.32252
L 417.536131 72.057698
L 418.271309 72.792876
L 419.006487 73.528054
L 419.741665 74.263232
L 420.476843 74.99841
L 421.212021 75.733587
L 421.947199 76.468765
L 422.682376 77.203943
L 423.417554 77.939121
L 424.152732 78.674299
L 424.88791 79.409477
L 425.623088 80.144655
L 426.358266 80.879833
L 427.093444 81.61501
L 427.828622 82.350188
L 428.563799 83.085366
L 429.298977 83.820544
L 430.034155 84.555722
L 430.769333 85.2909
L 431.504511 86.026078
L 432.239689 86.761255
L 432.974867 87.496433
L 433.710044 88.231611
L 434.445222 88.966789
L 435.1804 89.701967
L 435.915578 90.437145
L 436.650756 91.172323
L 437.385934 91.9075
L 438.121112 92.642678
L 438.85629 93.377856
L 439.591467 94.113034
L 440.326645 94.848212
L 441.061823 95.58339
L 441.797001 96.318568
L 442.532179 97.053746
L 443.267357 97.788923
L 444.002535 98.524101
L 444.737712 99.259279
L 445.47289 99.994457
L 446.208068 100.729635
L 446.943246 101.464813
L 447.678424 102.199991
L 448.413602 102.935168
L 449.14878 103.670346
L 449.883958 104.405524
L 450.619135 105.140702
L 451.354313 105.87588
L 452.089491 106.611058
L 452.824669 107.346236
L 453.559847 108.081414
L 454.295025 108.816591
L 455.030203 109.551769
L 455.76538 110.286947
L 456.500558 111.022125
L 457.235736 111.757303
L 457.970914 112.492481
L 458.706092 113.227659
L 459.44127 113.962836
L 460.176448 114.698014
L 460.911625 115.433192
L 461.646803 116.16837
L 462.381981 116.903548
L 463.117159 117.638726
L 463.852337 118.373904
L 464.587515 119.109082
L 465.322693 119.844259
L 466.057871 120.579437
L 466.793048 121.314615
L 467.528226 122.049793
L 468.263404 122.784971
L 468.998582 123.520149
L 469.73376 124.255327
L 470.468938 124.990504
L 471.204116 125.725682
L 471.939293 126.46086
L 472.674471 127.196038
L 473.409649 127.931216
L 474.144827 128.666394
L 474.880005 129.401572
L 475.615183 130.13675
L 476.350361 130.871927
L 477.085539 131.607105
L 477.820716 132.342283
L 478.555894 133.077461
L 479.291072 133.812639
L 480.02625 134.547817
L 480.761428 135.282995
L 481.496606 136.018172
L 482.231784 136.75335
L 482.966961 137.488528
L 483.702139 138.223706
L 484.437317 138.958884
L 485.172495 139.694062
L 485.907673 140.42924
L 486.642851 141.164417
L 487.378029 141.899595
L 488.113207 142.634773
L 488.848384 143.369951
L 489.583562 144.105129
L 490.31874 144.840307
L 491.053918 145.575485
L 491.789096 146.310663
L 492.524274 147.04584
L 493.259452 147.781018
L 493.994629 148.516196
L 494.729807 149.251374
L 495.464985 149.986552
L 496.200163 150.72173
L 496.935341 151.456908
L 497.670519 152.192085
L 498.405697 152.927263
L 499.140875 153.662441
L 499.876052 154.397619
L 500.61123 155.132797
L 501.346408 155.867975
L 502.081586 156.603153
L 502.816764 157.338331
L 503.551942 158.073508
L 504.28712 158.808686
L 505.022297 159.543864
L 505.757475 160.279042
L 506.492653 161.01422
L 507.227831 161.749398
L 507.963009 162.484576
L 508.698187 163.219753
L 509.433365 163.954931
L 510.168542 164.690109
L 510.90372 165.425287
L 511.638898 166.160465
L 512.374076 166.895643
L 513.109254 167.630821
L 513.844432 168.365999
L 514.57961 169.101176
L 515.314788 169.836354
L 516.049965 170.571532
L 516.785143 171.30671
L 517.520321 172.041888
L 518.255499 172.777066
L 518.990677 173.512244
L 519.725855 174.247421
L 520.461033 174.982599
L 521.19621 175.717777
L 521.931388 176.452955
L 522.666566 177.188133
L 523.401744 177.923311
L 524.136922 178.658489
L 524.8721 179.393667
L 525.607278 180.128844
L 526.342456 180.864022
L 527.077633 181.5992
L 527.812811 182.334378
z
" clip-path="url(#p5fc5f5b736)" style="fill: #dbeafe"/>
   </g>
   <g id="PathCollection_3">
    <defs>
     <path id="C2_0_284655ce3b" d="M 0 3.708099
C 0.983399 3.708099 1.926654 3.317391 2.622022 2.622022
C 3.317391 1.926654 3.708099 0.983399 3.708099 -0
C 3.708099 -0.983399 3.317391 -1.926654 2.622022 -2.622022
C 1.926654 -3.317391 0.983399 -3.708099 0 -3.708099
C -0.983399 -3.708099 -1.926654 -3.317391 -2.622022 -2.622022
C -3.317391 -1.926654 -3.708099 -0.983399 -3.708099 0
C -3.708099 0.983399 -3.317391 1.926654 -2.622022 2.622022
C -1.926654 3.317391 -0.983399 3.708099 0 3.708099
z
"/>
    </defs>
    <g clip-path="url(#p5fc5f5b736)">
     <use xlink:href="#C2_0_284655ce3b" x="410.27625" y="156.511255" style="fill: #d62728; stroke: #ffffff"/>
    </g>
    <g clip-path="url(#p5fc5f5b736)">
     <use xlink:href="#C2_0_284655ce3b" x="410.27625" y="65.532995" style="fill: #2ca02c; stroke: #ffffff"/>
    </g>
    <g clip-path="url(#p5fc5f5b736)">
     <use xlink:href="#C2_0_284655ce3b" x="501.254511" y="156.511255" style="fill: #2ca02c; stroke: #ffffff"/>
    </g>
    <g clip-path="url(#p5fc5f5b736)">
     <use xlink:href="#C2_0_284655ce3b" x="501.254511" y="65.532995" style="fill: #d62728; stroke: #ffffff"/>
    </g>
   </g>
   <g id="matplotlib.axis_5">
    <g id="xtick_7">
     <g id="line2d_17">
      <g>
       <use xlink:href="#m3745ae70e3" x="410.27625" y="183.804734" style="stroke: #000000; stroke-width: 0.8"/>
      </g>
     </g>
     <g id="text_18">
      <text style="font-size: 8px; font-family: 'DejaVu Sans'; text-anchor: middle" x="410.27625" y="196.883484" transform="rotate(-0 410.27625 196.883484)">−1</text>
     </g>
    </g>
    <g id="xtick_8">
     <g id="line2d_18">
      <g>
       <use xlink:href="#m3745ae70e3" x="455.76538" y="183.804734" style="stroke: #000000; stroke-width: 0.8"/>
      </g>
     </g>
     <g id="text_19">
      <text style="font-size: 8px; font-family: 'DejaVu Sans'; text-anchor: middle" x="455.76538" y="196.883484" transform="rotate(-0 455.76538 196.883484)">0</text>
     </g>
    </g>
    <g id="xtick_9">
     <g id="line2d_19">
      <g>
       <use xlink:href="#m3745ae70e3" x="501.254511" y="183.804734" style="stroke: #000000; stroke-width: 0.8"/>
      </g>
     </g>
     <g id="text_20">
      <text style="font-size: 8px; font-family: 'DejaVu Sans'; text-anchor: middle" x="501.254511" y="196.883484" transform="rotate(-0 501.254511 196.883484)">1</text>
     </g>
    </g>
   </g>
   <g id="matplotlib.axis_6">
    <g id="ytick_8">
     <g id="line2d_20">
      <g>
       <use xlink:href="#m095a492e84" x="382.982772" y="179.255821" style="stroke: #000000; stroke-width: 0.8"/>
      </g>
     </g>
     <g id="text_21">
      <text style="font-size: 8px; font-family: 'DejaVu Sans'; text-anchor: end" x="375.982772" y="182.295196" transform="rotate(-0 375.982772 182.295196)">−1.5</text>
     </g>
    </g>
    <g id="ytick_9">
     <g id="line2d_21">
      <g>
       <use xlink:href="#m095a492e84" x="382.982772" y="156.511255" style="stroke: #000000; stroke-width: 0.8"/>
      </g>
     </g>
     <g id="text_22">
      <text style="font-size: 8px; font-family: 'DejaVu Sans'; text-anchor: end" x="375.982772" y="159.55063" transform="rotate(-0 375.982772 159.55063)">−1.0</text>
     </g>
    </g>
    <g id="ytick_10">
     <g id="line2d_22">
      <g>
       <use xlink:href="#m095a492e84" x="382.982772" y="133.76669" style="stroke: #000000; stroke-width: 0.8"/>
      </g>
     </g>
     <g id="text_23">
      <text style="font-size: 8px; font-family: 'DejaVu Sans'; text-anchor: end" x="375.982772" y="136.806065" transform="rotate(-0 375.982772 136.806065)">−0.5</text>
     </g>
    </g>
    <g id="ytick_11">
     <g id="line2d_23">
      <g>
       <use xlink:href="#m095a492e84" x="382.982772" y="111.022125" style="stroke: #000000; stroke-width: 0.8"/>
      </g>
     </g>
     <g id="text_24">
      <text style="font-size: 8px; font-family: 'DejaVu Sans'; text-anchor: end" x="375.982772" y="114.0615" transform="rotate(-0 375.982772 114.0615)">0.0</text>
     </g>
    </g>
    <g id="ytick_12">
     <g id="line2d_24">
      <g>
       <use xlink:href="#m095a492e84" x="382.982772" y="88.27756" style="stroke: #000000; stroke-width: 0.8"/>
      </g>
     </g>
     <g id="text_25">
      <text style="font-size: 8px; font-family: 'DejaVu Sans'; text-anchor: end" x="375.982772" y="91.316935" transform="rotate(-0 375.982772 91.316935)">0.5</text>
     </g>
    </g>
    <g id="ytick_13">
     <g id="line2d_25">
      <g>
       <use xlink:href="#m095a492e84" x="382.982772" y="65.532995" style="stroke: #000000; stroke-width: 0.8"/>
      </g>
     </g>
     <g id="text_26">
      <text style="font-size: 8px; font-family: 'DejaVu Sans'; text-anchor: end" x="375.982772" y="68.57237" transform="rotate(-0 375.982772 68.57237)">1.0</text>
     </g>
    </g>
    <g id="ytick_14">
     <g id="line2d_26">
      <g>
       <use xlink:href="#m095a492e84" x="382.982772" y="42.788429" style="stroke: #000000; stroke-width: 0.8"/>
      </g>
     </g>
     <g id="text_27">
      <text style="font-size: 8px; font-family: 'DejaVu Sans'; text-anchor: end" x="375.982772" y="45.827804" transform="rotate(-0 375.982772 45.827804)">1.5</text>
     </g>
    </g>
   </g>
   <g id="QuadContourSet_2">
    <path d="M 382.982772 38.239516
L 528.547989 183.804734
L 528.547989 183.804734
" clip-path="url(#p5fc5f5b736)" style="fill: none; stroke: #1f77b4; stroke-width: 2"/>
   </g>
   <g id="patch_13">
    <path d="M 382.982772 183.804734
L 382.982772 38.239516
" style="fill: none; stroke: #000000; stroke-width: 0.8; stroke-linejoin: miter; stroke-linecap: square"/>
   </g>
   <g id="patch_14">
    <path d="M 528.547989 183.804734
L 528.547989 38.239516
" style="fill: none; stroke: #000000; stroke-width: 0.8; stroke-linejoin: miter; stroke-linecap: square"/>
   </g>
   <g id="patch_15">
    <path d="M 382.982772 183.804734
L 528.547989 183.804734
" style="fill: none; stroke: #000000; stroke-width: 0.8; stroke-linejoin: miter; stroke-linecap: square"/>
   </g>
   <g id="patch_16">
    <path d="M 382.982772 38.239516
L 528.547989 38.239516
" style="fill: none; stroke: #000000; stroke-width: 0.8; stroke-linejoin: miter; stroke-linecap: square"/>
   </g>
   <g id="text_28">
    <text style="font-weight: 700; font-size: 10px; font-family: 'DejaVu Sans'; text-anchor: start; fill: #6b7280" x="389.806141" y="172.432451" transform="rotate(-0 389.806141 172.432451)">off</text>
   </g>
   <g id="text_29">
    <text style="font-weight: 700; font-size: 10px; font-family: 'DejaVu Sans'; text-anchor: start; fill: #1f77b4" x="489.882228" y="58.709625" transform="rotate(-0 489.882228 58.709625)">on</text>
   </g>
   <g id="text_30">
    <text style="font-size: 12px; font-family: 'DejaVu Sans'; text-anchor: middle" x="455.76538" y="32.239516" transform="rotate(-0 455.76538 32.239516)">ReLU gate</text>
   </g>
  </g>
  <g id="axes_4">
   <g id="patch_17">
    <path d="M 557.661033 199.726125
L 703.22625 199.726125
L 703.22625 22.318125
L 557.661033 22.318125
z
" style="fill: #ffffff"/>
   </g>
   <g id="PathCollection_4">
    <defs>
     <path id="C3_0_f5290c1b38" d="M 0 4.1833
C 1.109424 4.1833 2.173559 3.742521 2.95804 2.95804
C 3.742521 2.173559 4.1833 1.109424 4.1833 -0
C 4.1833 -1.109424 3.742521 -2.173559 2.95804 -2.95804
C 2.173559 -3.742521 1.109424 -4.1833 0 -4.1833
C -1.109424 -4.1833 -2.173559 -3.742521 -2.95804 -2.95804
C -3.742521 -2.173559 -4.1833 -1.109424 -4.1833 0
C -4.1833 1.109424 -3.742521 2.173559 -2.95804 2.95804
C -2.173559 3.742521 -1.109424 4.1833 0 4.1833
z
"/>
    </defs>
    <g clip-path="url(#pc0e45e0e7f)">
     <use xlink:href="#C3_0_f5290c1b38" x="685.030598" y="192.334125" style="fill: #d62728; stroke: #ffffff"/>
    </g>
    <g clip-path="url(#pc0e45e0e7f)">
     <use xlink:href="#C3_0_f5290c1b38" x="563.72625" y="44.494125" style="fill: #2ca02c; stroke: #ffffff"/>
    </g>
    <g clip-path="url(#pc0e45e0e7f)">
     <use xlink:href="#C3_0_f5290c1b38" x="563.72625" y="44.494125" style="fill: #2ca02c; stroke: #ffffff"/>
    </g>
    <g clip-path="url(#pc0e45e0e7f)">
     <use xlink:href="#C3_0_f5290c1b38" x="685.030598" y="192.334125" style="fill: #d62728; stroke: #ffffff"/>
    </g>
   </g>
   <g id="matplotlib.axis_7">
    <g id="xtick_10">
     <g id="line2d_27">
      <g>
       <use xlink:href="#m3745ae70e3" x="563.72625" y="199.726125" style="stroke: #000000; stroke-width: 0.8"/>
      </g>
     </g>
     <g id="text_31">
      <text style="font-size: 8px; font-family: 'DejaVu Sans'; text-anchor: middle" x="563.72625" y="212.804875" transform="rotate(-0 563.72625 212.804875)">0.0</text>
     </g>
    </g>
    <g id="xtick_11">
     <g id="line2d_28">
      <g>
       <use xlink:href="#m3745ae70e3" x="594.052337" y="199.726125" style="stroke: #000000; stroke-width: 0.8"/>
      </g>
     </g>
     <g id="text_32">
      <text style="font-size: 8px; font-family: 'DejaVu Sans'; text-anchor: middle" x="594.052337" y="212.804875" transform="rotate(-0 594.052337 212.804875)">0.5</text>
     </g>
    </g>
    <g id="xtick_12">
     <g id="line2d_29">
      <g>
       <use xlink:href="#m3745ae70e3" x="624.378424" y="199.726125" style="stroke: #000000; stroke-width: 0.8"/>
      </g>
     </g>
     <g id="text_33">
      <text style="font-size: 8px; font-family: 'DejaVu Sans'; text-anchor: middle" x="624.378424" y="212.804875" transform="rotate(-0 624.378424 212.804875)">1.0</text>
     </g>
    </g>
    <g id="xtick_13">
     <g id="line2d_30">
      <g>
       <use xlink:href="#m3745ae70e3" x="654.704511" y="199.726125" style="stroke: #000000; stroke-width: 0.8"/>
      </g>
     </g>
     <g id="text_34">
      <text style="font-size: 8px; font-family: 'DejaVu Sans'; text-anchor: middle" x="654.704511" y="212.804875" transform="rotate(-0 654.704511 212.804875)">1.5</text>
     </g>
    </g>
    <g id="xtick_14">
     <g id="line2d_31">
      <g>
       <use xlink:href="#m3745ae70e3" x="685.030598" y="199.726125" style="stroke: #000000; stroke-width: 0.8"/>
      </g>
     </g>
     <g id="text_35">
      <text style="font-size: 8px; font-family: 'DejaVu Sans'; text-anchor: middle" x="685.030598" y="212.804875" transform="rotate(-0 685.030598 212.804875)">2.0</text>
     </g>
    </g>
    <g id="text_36">
     <text style="font-size: 9px; font-family: 'DejaVu Sans'; text-anchor: middle" x="630.443641" y="225.307219" transform="rotate(-0 630.443641 225.307219)">diagonal gates</text>
    </g>
   </g>
   <g id="matplotlib.axis_8">
    <g id="ytick_15">
     <g id="line2d_32">
      <g>
       <use xlink:href="#m095a492e84" x="557.661033" y="192.334125" style="stroke: #000000; stroke-width: 0.8"/>
      </g>
     </g>
     <g id="text_37">
      <text style="font-size: 8px; font-family: 'DejaVu Sans'; text-anchor: end" x="550.661033" y="195.3735" transform="rotate(-0 550.661033 195.3735)">0.0</text>
     </g>
    </g>
    <g id="ytick_16">
     <g id="line2d_33">
      <g>
       <use xlink:href="#m095a492e84" x="557.661033" y="155.374125" style="stroke: #000000; stroke-width: 0.8"/>
      </g>
     </g>
     <g id="text_38">
      <text style="font-size: 8px; font-family: 'DejaVu Sans'; text-anchor: end" x="550.661033" y="158.4135" transform="rotate(-0 550.661033 158.4135)">0.5</text>
     </g>
    </g>
    <g id="ytick_17">
     <g id="line2d_34">
      <g>
       <use xlink:href="#m095a492e84" x="557.661033" y="118.414125" style="stroke: #000000; stroke-width: 0.8"/>
      </g>
     </g>
     <g id="text_39">
      <text style="font-size: 8px; font-family: 'DejaVu Sans'; text-anchor: end" x="550.661033" y="121.4535" transform="rotate(-0 550.661033 121.4535)">1.0</text>
     </g>
    </g>
    <g id="ytick_18">
     <g id="line2d_35">
      <g>
       <use xlink:href="#m095a492e84" x="557.661033" y="81.454125" style="stroke: #000000; stroke-width: 0.8"/>
      </g>
     </g>
     <g id="text_40">
      <text style="font-size: 8px; font-family: 'DejaVu Sans'; text-anchor: end" x="550.661033" y="84.4935" transform="rotate(-0 550.661033 84.4935)">1.5</text>
     </g>
    </g>
    <g id="ytick_19">
     <g id="line2d_36">
      <g>
       <use xlink:href="#m095a492e84" x="557.661033" y="44.494125" style="stroke: #000000; stroke-width: 0.8"/>
      </g>
     </g>
     <g id="text_41">
      <text style="font-size: 8px; font-family: 'DejaVu Sans'; text-anchor: end" x="550.661033" y="47.5335" transform="rotate(-0 550.661033 47.5335)">2.0</text>
     </g>
    </g>
    <g id="text_42">
     <text style="font-size: 9px; font-family: 'DejaVu Sans'; text-anchor: middle" x="532.066814" y="111.022125" transform="rotate(-90 532.066814 111.022125)">anti-diagonal gates</text>
    </g>
   </g>
   <g id="line2d_37">
    <path d="M 581.921902 199.726125
L 703.22625 51.886125
" clip-path="url(#pc0e45e0e7f)" style="fill: none; stroke: #9467bd; stroke-width: 2; stroke-linecap: square"/>
   </g>
   <g id="patch_18">
    <path d="M 557.661033 199.726125
L 557.661033 22.318125
" style="fill: none; stroke: #000000; stroke-width: 0.8; stroke-linejoin: miter; stroke-linecap: square"/>
   </g>
   <g id="patch_19">
    <path d="M 703.22625 199.726125
L 703.22625 22.318125
" style="fill: none; stroke: #000000; stroke-width: 0.8; stroke-linejoin: miter; stroke-linecap: square"/>
   </g>
   <g id="patch_20">
    <path d="M 557.661033 199.726125
L 703.22625 199.726125
" style="fill: none; stroke: #000000; stroke-width: 0.8; stroke-linejoin: miter; stroke-linecap: square"/>
   </g>
   <g id="patch_21">
    <path d="M 557.661033 22.318125
L 703.22625 22.318125
" style="fill: none; stroke: #000000; stroke-width: 0.8; stroke-linejoin: miter; stroke-linecap: square"/>
   </g>
   <g id="text_43">
    <text style="font-size: 8px; font-family: 'DejaVu Sans'; fill: #9467bd" transform="translate(575.856685 59.841625)">hidden ReLU</text>
    <text style="font-size: 8px; font-family: 'DejaVu Sans'; fill: #9467bd" transform="translate(575.856685 68.799875)">features separate</text>
    <text style="font-size: 8px; font-family: 'DejaVu Sans'; fill: #9467bd" transform="translate(575.856685 77.758125)">classes</text>
   </g>
   <g id="text_44">
    <text style="font-size: 12px; font-family: 'DejaVu Sans'; text-anchor: middle" x="630.443641" y="16.318125" transform="rotate(-0 630.443641 16.318125)">MLP feature space</text>
   </g>
  </g>
 </g>
 <defs>
  <clipPath id="paadee3f53f">
   <rect x="33.62625" y="38.239516" width="145.565217" height="145.565217"/>
  </clipPath>
  <clipPath id="p1b30af7497">
   <rect x="208.304511" y="22.318125" width="145.565217" height="177.408"/>
  </clipPath>
  <clipPath id="p5fc5f5b736">
   <rect x="382.982772" y="38.239516" width="145.565217" height="145.565217"/>
  </clipPath>
  <clipPath id="pc0e45e0e7f">
   <rect x="557.661033" y="22.318125" width="145.565217" height="177.408"/>
  </clipPath>
 </defs>
</svg>
