<?xml version="1.0" encoding="utf-8" standalone="no"?>
<!DOCTYPE svg PUBLIC "-//W3C//DTD SVG 1.1//EN"
  "http://www.w3.org/Graphics/SVG/1.1/DTD/svg11.dtd">
<svg xmlns:xlink="http://www.w3.org/1999/xlink" width="628.2pt" height="269.424pt" viewBox="0 0 628.2 269.424" xmlns="http://www.w3.org/2000/svg" version="1.1">
 <metadata>
  <rdf:RDF xmlns:dc="http://purl.org/dc/elements/1.1/" xmlns:cc="http://creativecommons.org/ns#" xmlns:rdf="http://www.w3.org/1999/02/22-rdf-syntax-ns#">
   <cc:Work>
    <dc:type rdf:resource="http://purl.org/dc/dcmitype/StillImage"/>
    <dc:format>image/svg+xml</dc:format>
    <dc:creator>
     <cc:Agent>
      <dc:title>Matplotlib v3.10.9, https://matplotlib.org/</dc:title>
     </cc:Agent>
    </dc:creator>
   </cc:Work>
  </rdf:RDF>
 </metadata>
 <defs>
  <style type="text/css">*{stroke-linejoin: round; stroke-linecap: butt}</style>
 </defs>
 <g id="figure_1">
  <g id="patch_1">
   <path d="M 0 269.424
L 628.2 269.424
L 628.2 0
L 0 0
z
" style="fill: #ffffff"/>
  </g>
  <g id="axes_1">
   <g id="patch_2">
    <path d="M 27.66 149.503392
L 86.4825 149.503392
Q 88.5285 149.503392 88.5285 147.4632
L 88.5285 109.2096
Q 88.5285 107.169408 86.4825 107.169408
L 27.66 107.169408
Q 25.614 107.169408 25.614 109.2096
L 25.614 147.4632
Q 25.614 149.503392 27.66 149.503392
z
" clip-path="url(#p52ea386664)" style="fill: #ffffff; stroke: #1f77b4; stroke-width: 1.3; stroke-linejoin: miter"/>
   </g>
   <g id="patch_3">
    <path d="M 104.385 149.503392
L 163.2075 149.503392
Q 165.2535 149.503392 165.2535 147.4632
L 165.2535 109.2096
Q 165.2535 107.169408 163.2075 107.169408
L 104.385 107.169408
Q 102.339 107.169408 102.339 109.2096
L 102.339 147.4632
Q 102.339 149.503392 104.385 149.503392
z
" clip-path="url(#p52ea386664)" style="fill: #ffffff; stroke: #1f77b4; stroke-width: 1.3; stroke-linejoin: miter"/>
   </g>
   <g id="patch_4">
    <path d="M 188.7825 149.503392
L 247.605 149.503392
Q 249.651 149.503392 249.651 147.4632
L 249.651 109.2096
Q 249.651 107.169408 247.605 107.169408
L 188.7825 107.169408
Q 186.7365 107.169408 186.7365 109.2096
L 186.7365 147.4632
Q 186.7365 149.503392 188.7825 149.503392
z
" clip-path="url(#p52ea386664)" style="fill: #ffffff; stroke: #1f77b4; stroke-width: 1.3; stroke-linejoin: miter"/>
   </g>
   <g id="patch_5">
    <path d="M 280.8525 149.503392
L 339.675 149.503392
Q 341.721 149.503392 341.721 147.4632
L 341.721 109.2096
Q 341.721 107.169408 339.675 107.169408
L 280.8525 107.169408
Q 278.8065 107.169408 278.8065 109.2096
L 278.8065 147.4632
Q 278.8065 149.503392 280.8525 149.503392
z
" clip-path="url(#p52ea386664)" style="fill: #ffffff; stroke: #1f77b4; stroke-width: 1.3; stroke-linejoin: miter"/>
   </g>
   <g id="patch_6">
    <path d="M 365.25 149.503392
L 424.0725 149.503392
Q 426.1185 149.503392 426.1185 147.4632
L 426.1185 109.2096
Q 426.1185 107.169408 424.0725 107.169408
L 365.25 107.169408
Q 363.204 107.169408 363.204 109.2096
L 363.204 147.4632
Q 363.204 149.503392 365.25 149.503392
z
" clip-path="url(#p52ea386664)" style="fill: #ffffff; stroke: #1f77b4; stroke-width: 1.3; stroke-linejoin: miter"/>
   </g>
   <g id="patch_7">
    <path d="M 467.55 149.503392
L 526.3725 149.503392
Q 528.4185 149.503392 528.4185 147.4632
L 528.4185 109.2096
Q 528.4185 107.169408 526.3725 107.169408
L 467.55 107.169408
Q 465.504 107.169408 465.504 109.2096
L 465.504 147.4632
Q 465.504 149.503392 467.55 149.503392
z
" clip-path="url(#p52ea386664)" style="fill: #ffffff; stroke: #1f77b4; stroke-width: 1.3; stroke-linejoin: miter"/>
   </g>
   <g id="patch_8">
    <path d="M 554.505 149.503392
L 613.3275 149.503392
Q 615.3735 149.503392 615.3735 147.4632
L 615.3735 109.2096
Q 615.3735 107.169408 613.3275 107.169408
L 554.505 107.169408
Q 552.459 107.169408 552.459 109.2096
L 552.459 147.4632
Q 552.459 149.503392 554.505 149.503392
z
" clip-path="url(#p52ea386664)" style="fill: #ffffff; stroke: #1f77b4; stroke-width: 1.3; stroke-linejoin: miter"/>
   </g>
   <g id="line2d_1">
    <path d="M 216.915 170.41536
L 498.24 170.41536
" clip-path="url(#p52ea386664)" style="fill: none; stroke: #9467bd; stroke-width: 1.6; stroke-linecap: square"/>
   </g>
   <g id="text_1">
    <text style="font-weight: 700; font-size: 9px; font-family: 'DejaVu Sans'; text-anchor: middle; fill: #1f77b4" x="57.07125" y="130.819837" transform="rotate(-0 57.07125 130.819837)">text</text>
   </g>
   <g id="text_2">
    <text style="font-weight: 700; font-size: 9px; font-family: 'DejaVu Sans'; text-anchor: middle; fill: #1f77b4" x="133.79625" y="130.819837" transform="rotate(-0 133.79625 130.819837)">token IDs</text>
   </g>
   <g id="text_3">
    <text style="font-weight: 700; font-size: 9px; font-family: 'DejaVu Sans'; text-anchor: middle; fill: #1f77b4" x="218.19375" y="130.819837" transform="rotate(-0 218.19375 130.819837)">input E rows</text>
   </g>
   <g id="text_4">
    <text style="font-weight: 700; font-size: 9px; font-family: 'DejaVu Sans'; text-anchor: middle; fill: #1f77b4" x="310.26375" y="130.819837" transform="rotate(-0 310.26375 130.819837)">+ positions</text>
   </g>
   <g id="text_5">
    <text style="font-weight: 700; font-size: 9px; font-family: 'DejaVu Sans'; fill: #1f77b4" transform="translate(364.144219 125.780822)">transformer</text>
    <text style="font-weight: 700; font-size: 9px; font-family: 'DejaVu Sans'; fill: #1f77b4" transform="translate(378.467578 135.858853)">blocks</text>
   </g>
   <g id="text_6">
    <text style="font-weight: 700; font-size: 9px; font-family: 'DejaVu Sans'; text-anchor: middle; fill: #1f77b4" x="496.96125" y="130.784681" transform="rotate(-0 496.96125 130.784681)">output logits</text>
   </g>
   <g id="text_7">
    <text style="font-weight: 700; font-size: 9px; font-family: 'DejaVu Sans'; text-anchor: middle; fill: #1f77b4" x="583.91625" y="130.819837" transform="rotate(-0 583.91625 130.819837)">decode</text>
   </g>
   <g id="patch_9">
    <path d="M 88.479922 128.591424
Q 95.432569 128.591424 100.931772 128.591424
" style="fill: none; stroke: #6b7280; stroke-width: 1.3; stroke-linecap: round"/>
    <path d="M 96.931772 126.591424
L 100.931772 128.591424
L 96.931772 130.591424
" style="fill: none; stroke: #6b7280; stroke-width: 1.3; stroke-linecap: round"/>
   </g>
   <g id="patch_10">
    <path d="M 165.208669 128.591424
Q 175.995596 128.591424 185.329079 128.591424
" style="fill: none; stroke: #6b7280; stroke-width: 1.3; stroke-linecap: round"/>
    <path d="M 181.329079 126.591424
L 185.329079 128.591424
L 181.329079 130.591424
" style="fill: none; stroke: #6b7280; stroke-width: 1.3; stroke-linecap: round"/>
   </g>
   <g id="patch_11">
    <path d="M 249.605857 128.591424
Q 264.227928 128.591424 277.396555 128.591424
" style="fill: none; stroke: #6b7280; stroke-width: 1.3; stroke-linecap: round"/>
    <path d="M 273.396555 126.591424
L 277.396555 128.591424
L 273.396555 130.591424
" style="fill: none; stroke: #6b7280; stroke-width: 1.3; stroke-linecap: round"/>
   </g>
   <g id="patch_12">
    <path d="M 341.676169 128.591424
Q 352.463096 128.591424 361.796579 128.591424
" style="fill: none; stroke: #6b7280; stroke-width: 1.3; stroke-linecap: round"/>
    <path d="M 357.796579 126.591424
L 361.796579 128.591424
L 357.796579 130.591424
" style="fill: none; stroke: #6b7280; stroke-width: 1.3; stroke-linecap: round"/>
   </g>
   <g id="patch_13">
    <path d="M 426.070703 128.591424
Q 445.811598 128.591424 464.099048 128.591424
" style="fill: none; stroke: #6b7280; stroke-width: 1.3; stroke-linecap: round"/>
    <path d="M 460.099048 126.591424
L 464.099048 128.591424
L 460.099048 130.591424
" style="fill: none; stroke: #6b7280; stroke-width: 1.3; stroke-linecap: round"/>
   </g>
   <g id="patch_14">
    <path d="M 528.374605 128.591424
Q 540.439818 128.591424 551.051585 128.591424
" style="fill: none; stroke: #6b7280; stroke-width: 1.3; stroke-linecap: round"/>
    <path d="M 547.051585 126.591424
L 551.051585 128.591424
L 547.051585 130.591424
" style="fill: none; stroke: #6b7280; stroke-width: 1.3; stroke-linecap: round"/>
   </g>
   <g id="patch_15">
    <path d="M 216.915 168.417693
Q 216.915 158.939315 216.915 150.578971
" style="fill: none; stroke: #9467bd; stroke-linecap: round"/>
    <path d="M 214.915 154.578971
L 216.915 150.578971
L 218.915 154.578971
" style="fill: none; stroke: #9467bd; stroke-linecap: round"/>
   </g>
   <g id="patch_16">
    <path d="M 498.24 168.417693
Q 498.24 158.939315 498.24 150.578971
" style="fill: none; stroke: #9467bd; stroke-linecap: round"/>
    <path d="M 496.24 154.578971
L 498.24 150.578971
L 500.24 154.578971
" style="fill: none; stroke: #9467bd; stroke-linecap: round"/>
   </g>
   <g id="text_8">
    <text style="font-size: 9px; font-family: 'DejaVu Sans'; text-anchor: middle; fill: #9467bd" x="357.5775" y="193.36752" transform="rotate(-0 357.5775 193.36752)">with tied weights, the same vocabulary table participates in input and output scoring</text>
   </g>
   <g id="text_9">
    <text style="font-weight: 700; font-size: 10px; font-family: 'DejaVu Sans'; text-anchor: middle; fill: #d62728" x="314.1" y="58.2048" transform="rotate(-0 314.1 58.2048)">vocabulary edits are model, tokenizer, and decoding edits</text>
   </g>
  </g>
 </g>
 <defs>
  <clipPath id="p52ea386664">
   <rect x="7.2" y="7.2" width="613.8" height="255.024"/>
  </clipPath>
 </defs>
</svg>
