<?xml version="1.0" encoding="utf-8" standalone="no"?>
<!DOCTYPE svg PUBLIC "-//W3C//DTD SVG 1.1//EN"
  "http://www.w3.org/Graphics/SVG/1.1/DTD/svg11.dtd">
<svg xmlns:xlink="http://www.w3.org/1999/xlink" width="656.547381pt" height="308.386562pt" viewBox="0 0 656.547381 308.386562" xmlns="http://www.w3.org/2000/svg" version="1.1">
 <metadata>
  <rdf:RDF xmlns:dc="http://purl.org/dc/elements/1.1/" xmlns:cc="http://creativecommons.org/ns#" xmlns:rdf="http://www.w3.org/1999/02/22-rdf-syntax-ns#">
   <cc:Work>
    <dc:type rdf:resource="http://purl.org/dc/dcmitype/StillImage"/>
    <dc:format>image/svg+xml</dc:format>
    <dc:creator>
     <cc:Agent>
      <dc:title>Matplotlib v3.10.9, https://matplotlib.org/</dc:title>
     </cc:Agent>
    </dc:creator>
   </cc:Work>
  </rdf:RDF>
 </metadata>
 <defs>
  <style type="text/css">*{stroke-linejoin: round; stroke-linecap: butt}</style>
 </defs>
 <g id="figure_1">
  <g id="patch_1">
   <path d="M 0 308.386562
L 656.547381 308.386562
L 656.547381 0
L 0 0
z
" style="fill: #ffffff"/>
  </g>
  <g id="axes_1">
   <g id="patch_2">
    <path d="M 24.04855 69.095625
L 41.739527 69.095625
L 41.739527 47.266125
L 24.04855 47.266125
z
" clip-path="url(#p1bc532db3b)" style="fill: #ffffff; stroke: #9ca3af; stroke-width: 0.8; stroke-linejoin: miter"/>
   </g>
   <g id="patch_3">
    <path d="M 41.739527 69.095625
L 59.430505 69.095625
L 59.430505 47.266125
L 41.739527 47.266125
z
" clip-path="url(#p1bc532db3b)" style="fill: #ffffff; stroke: #9ca3af; stroke-width: 0.8; stroke-linejoin: miter"/>
   </g>
   <g id="patch_4">
    <path d="M 59.430505 69.095625
L 77.121482 69.095625
L 77.121482 47.266125
L 59.430505 47.266125
z
" clip-path="url(#p1bc532db3b)" style="fill: #ffffff; stroke: #9ca3af; stroke-width: 0.8; stroke-linejoin: miter"/>
   </g>
   <g id="patch_5">
    <path d="M 77.121482 69.095625
L 94.81246 69.095625
L 94.81246 47.266125
L 77.121482 47.266125
z
" clip-path="url(#p1bc532db3b)" style="fill: #ffffff; stroke: #9ca3af; stroke-width: 0.8; stroke-linejoin: miter"/>
   </g>
   <g id="patch_6">
    <path d="M 94.81246 69.095625
L 112.503437 69.095625
L 112.503437 47.266125
L 94.81246 47.266125
z
" clip-path="url(#p1bc532db3b)" style="fill: #ffffff; stroke: #9ca3af; stroke-width: 0.8; stroke-linejoin: miter"/>
   </g>
   <g id="patch_7">
    <path d="M 24.04855 90.925125
L 41.739527 90.925125
L 41.739527 69.095625
L 24.04855 69.095625
z
" clip-path="url(#p1bc532db3b)" style="fill: #e0f2fe; stroke: #9ca3af; stroke-width: 0.8; stroke-linejoin: miter"/>
   </g>
   <g id="patch_8">
    <path d="M 41.739527 90.925125
L 59.430505 90.925125
L 59.430505 69.095625
L 41.739527 69.095625
z
" clip-path="url(#p1bc532db3b)" style="fill: #e0f2fe; stroke: #9ca3af; stroke-width: 0.8; stroke-linejoin: miter"/>
   </g>
   <g id="patch_9">
    <path d="M 59.430505 90.925125
L 77.121482 90.925125
L 77.121482 69.095625
L 59.430505 69.095625
z
" clip-path="url(#p1bc532db3b)" style="fill: #e0f2fe; stroke: #9ca3af; stroke-width: 0.8; stroke-linejoin: miter"/>
   </g>
   <g id="patch_10">
    <path d="M 77.121482 90.925125
L 94.81246 90.925125
L 94.81246 69.095625
L 77.121482 69.095625
z
" clip-path="url(#p1bc532db3b)" style="fill: #e0f2fe; stroke: #9ca3af; stroke-width: 0.8; stroke-linejoin: miter"/>
   </g>
   <g id="patch_11">
    <path d="M 94.81246 90.925125
L 112.503437 90.925125
L 112.503437 69.095625
L 94.81246 69.095625
z
" clip-path="url(#p1bc532db3b)" style="fill: #e0f2fe; stroke: #9ca3af; stroke-width: 0.8; stroke-linejoin: miter"/>
   </g>
   <g id="patch_12">
    <path d="M 24.04855 112.754625
L 41.739527 112.754625
L 41.739527 90.925125
L 24.04855 90.925125
z
" clip-path="url(#p1bc532db3b)" style="fill: #ffffff; stroke: #9ca3af; stroke-width: 0.8; stroke-linejoin: miter"/>
   </g>
   <g id="patch_13">
    <path d="M 41.739527 112.754625
L 59.430505 112.754625
L 59.430505 90.925125
L 41.739527 90.925125
z
" clip-path="url(#p1bc532db3b)" style="fill: #ffffff; stroke: #9ca3af; stroke-width: 0.8; stroke-linejoin: miter"/>
   </g>
   <g id="patch_14">
    <path d="M 59.430505 112.754625
L 77.121482 112.754625
L 77.121482 90.925125
L 59.430505 90.925125
z
" clip-path="url(#p1bc532db3b)" style="fill: #ffffff; stroke: #9ca3af; stroke-width: 0.8; stroke-linejoin: miter"/>
   </g>
   <g id="patch_15">
    <path d="M 77.121482 112.754625
L 94.81246 112.754625
L 94.81246 90.925125
L 77.121482 90.925125
z
" clip-path="url(#p1bc532db3b)" style="fill: #ffffff; stroke: #9ca3af; stroke-width: 0.8; stroke-linejoin: miter"/>
   </g>
   <g id="patch_16">
    <path d="M 94.81246 112.754625
L 112.503437 112.754625
L 112.503437 90.925125
L 94.81246 90.925125
z
" clip-path="url(#p1bc532db3b)" style="fill: #ffffff; stroke: #9ca3af; stroke-width: 0.8; stroke-linejoin: miter"/>
   </g>
   <g id="patch_17">
    <path d="M 24.04855 134.584125
L 41.739527 134.584125
L 41.739527 112.754625
L 24.04855 112.754625
z
" clip-path="url(#p1bc532db3b)" style="fill: #ffffff; stroke: #9ca3af; stroke-width: 0.8; stroke-linejoin: miter"/>
   </g>
   <g id="patch_18">
    <path d="M 41.739527 134.584125
L 59.430505 134.584125
L 59.430505 112.754625
L 41.739527 112.754625
z
" clip-path="url(#p1bc532db3b)" style="fill: #ffffff; stroke: #9ca3af; stroke-width: 0.8; stroke-linejoin: miter"/>
   </g>
   <g id="patch_19">
    <path d="M 59.430505 134.584125
L 77.121482 134.584125
L 77.121482 112.754625
L 59.430505 112.754625
z
" clip-path="url(#p1bc532db3b)" style="fill: #ffffff; stroke: #9ca3af; stroke-width: 0.8; stroke-linejoin: miter"/>
   </g>
   <g id="patch_20">
    <path d="M 77.121482 134.584125
L 94.81246 134.584125
L 94.81246 112.754625
L 77.121482 112.754625
z
" clip-path="url(#p1bc532db3b)" style="fill: #ffffff; stroke: #9ca3af; stroke-width: 0.8; stroke-linejoin: miter"/>
   </g>
   <g id="patch_21">
    <path d="M 94.81246 134.584125
L 112.503437 134.584125
L 112.503437 112.754625
L 94.81246 112.754625
z
" clip-path="url(#p1bc532db3b)" style="fill: #ffffff; stroke: #9ca3af; stroke-width: 0.8; stroke-linejoin: miter"/>
   </g>
   <g id="patch_22">
    <path d="M 24.04855 156.413625
L 41.739527 156.413625
L 41.739527 134.584125
L 24.04855 134.584125
z
" clip-path="url(#p1bc532db3b)" style="fill: #ffffff; stroke: #9ca3af; stroke-width: 0.8; stroke-linejoin: miter"/>
   </g>
   <g id="patch_23">
    <path d="M 41.739527 156.413625
L 59.430505 156.413625
L 59.430505 134.584125
L 41.739527 134.584125
z
" clip-path="url(#p1bc532db3b)" style="fill: #ffffff; stroke: #9ca3af; stroke-width: 0.8; stroke-linejoin: miter"/>
   </g>
   <g id="patch_24">
    <path d="M 59.430505 156.413625
L 77.121482 156.413625
L 77.121482 134.584125
L 59.430505 134.584125
z
" clip-path="url(#p1bc532db3b)" style="fill: #ffffff; stroke: #9ca3af; stroke-width: 0.8; stroke-linejoin: miter"/>
   </g>
   <g id="patch_25">
    <path d="M 77.121482 156.413625
L 94.81246 156.413625
L 94.81246 134.584125
L 77.121482 134.584125
z
" clip-path="url(#p1bc532db3b)" style="fill: #ffffff; stroke: #9ca3af; stroke-width: 0.8; stroke-linejoin: miter"/>
   </g>
   <g id="patch_26">
    <path d="M 94.81246 156.413625
L 112.503437 156.413625
L 112.503437 134.584125
L 94.81246 134.584125
z
" clip-path="url(#p1bc532db3b)" style="fill: #ffffff; stroke: #9ca3af; stroke-width: 0.8; stroke-linejoin: miter"/>
   </g>
   <g id="patch_27">
    <path d="M 24.04855 156.413625
L 112.503437 156.413625
L 112.503437 47.266125
L 24.04855 47.266125
L 24.04855 156.413625
z
" clip-path="url(#p1bc532db3b)" style="fill: none; stroke: #1f77b4; stroke-width: 2; stroke-linejoin: miter"/>
   </g>
   <g id="patch_28">
    <path d="M 150.412675 69.095625
L 168.103652 69.095625
L 168.103652 47.266125
L 150.412675 47.266125
z
" clip-path="url(#p1bc532db3b)" style="fill: #ffffff; stroke: #9ca3af; stroke-width: 0.8; stroke-linejoin: miter"/>
   </g>
   <g id="patch_29">
    <path d="M 168.103652 69.095625
L 185.794629 69.095625
L 185.794629 47.266125
L 168.103652 47.266125
z
" clip-path="url(#p1bc532db3b)" style="fill: #ffffff; stroke: #9ca3af; stroke-width: 0.8; stroke-linejoin: miter"/>
   </g>
   <g id="patch_30">
    <path d="M 150.412675 90.925125
L 168.103652 90.925125
L 168.103652 69.095625
L 150.412675 69.095625
z
" clip-path="url(#p1bc532db3b)" style="fill: #e0f2fe; stroke: #9ca3af; stroke-width: 0.8; stroke-linejoin: miter"/>
   </g>
   <g id="patch_31">
    <path d="M 168.103652 90.925125
L 185.794629 90.925125
L 185.794629 69.095625
L 168.103652 69.095625
z
" clip-path="url(#p1bc532db3b)" style="fill: #e0f2fe; stroke: #9ca3af; stroke-width: 0.8; stroke-linejoin: miter"/>
   </g>
   <g id="patch_32">
    <path d="M 150.412675 112.754625
L 168.103652 112.754625
L 168.103652 90.925125
L 150.412675 90.925125
z
" clip-path="url(#p1bc532db3b)" style="fill: #ffffff; stroke: #9ca3af; stroke-width: 0.8; stroke-linejoin: miter"/>
   </g>
   <g id="patch_33">
    <path d="M 168.103652 112.754625
L 185.794629 112.754625
L 185.794629 90.925125
L 168.103652 90.925125
z
" clip-path="url(#p1bc532db3b)" style="fill: #ffffff; stroke: #9ca3af; stroke-width: 0.8; stroke-linejoin: miter"/>
   </g>
   <g id="patch_34">
    <path d="M 150.412675 134.584125
L 168.103652 134.584125
L 168.103652 112.754625
L 150.412675 112.754625
z
" clip-path="url(#p1bc532db3b)" style="fill: #ffffff; stroke: #9ca3af; stroke-width: 0.8; stroke-linejoin: miter"/>
   </g>
   <g id="patch_35">
    <path d="M 168.103652 134.584125
L 185.794629 134.584125
L 185.794629 112.754625
L 168.103652 112.754625
z
" clip-path="url(#p1bc532db3b)" style="fill: #ffffff; stroke: #9ca3af; stroke-width: 0.8; stroke-linejoin: miter"/>
   </g>
   <g id="patch_36">
    <path d="M 150.412675 156.413625
L 168.103652 156.413625
L 168.103652 134.584125
L 150.412675 134.584125
z
" clip-path="url(#p1bc532db3b)" style="fill: #ffffff; stroke: #9ca3af; stroke-width: 0.8; stroke-linejoin: miter"/>
   </g>
   <g id="patch_37">
    <path d="M 168.103652 156.413625
L 185.794629 156.413625
L 185.794629 134.584125
L 168.103652 134.584125
z
" clip-path="url(#p1bc532db3b)" style="fill: #ffffff; stroke: #9ca3af; stroke-width: 0.8; stroke-linejoin: miter"/>
   </g>
   <g id="patch_38">
    <path d="M 150.412675 156.413625
L 185.794629 156.413625
L 185.794629 47.266125
L 150.412675 47.266125
L 150.412675 156.413625
z
" clip-path="url(#p1bc532db3b)" style="fill: none; stroke: #2ca02c; stroke-width: 2; stroke-linejoin: miter"/>
   </g>
   <g id="patch_39">
    <path d="M 217.806874 105.478125
L 235.497852 105.478125
L 235.497852 83.648625
L 217.806874 83.648625
z
" clip-path="url(#p1bc532db3b)" style="fill: #ffffff; stroke: #9ca3af; stroke-width: 0.8; stroke-linejoin: miter"/>
   </g>
   <g id="patch_40">
    <path d="M 235.497852 105.478125
L 253.188829 105.478125
L 253.188829 83.648625
L 235.497852 83.648625
z
" clip-path="url(#p1bc532db3b)" style="fill: #ffffff; stroke: #9ca3af; stroke-width: 0.8; stroke-linejoin: miter"/>
   </g>
   <g id="patch_41">
    <path d="M 253.188829 105.478125
L 270.879807 105.478125
L 270.879807 83.648625
L 253.188829 83.648625
z
" clip-path="url(#p1bc532db3b)" style="fill: #ffffff; stroke: #9ca3af; stroke-width: 0.8; stroke-linejoin: miter"/>
   </g>
   <g id="patch_42">
    <path d="M 270.879807 105.478125
L 288.570784 105.478125
L 288.570784 83.648625
L 270.879807 83.648625
z
" clip-path="url(#p1bc532db3b)" style="fill: #ffffff; stroke: #9ca3af; stroke-width: 0.8; stroke-linejoin: miter"/>
   </g>
   <g id="patch_43">
    <path d="M 288.570784 105.478125
L 306.261762 105.478125
L 306.261762 83.648625
L 288.570784 83.648625
z
" clip-path="url(#p1bc532db3b)" style="fill: #ffffff; stroke: #9ca3af; stroke-width: 0.8; stroke-linejoin: miter"/>
   </g>
   <g id="patch_44">
    <path d="M 217.806874 127.307625
L 235.497852 127.307625
L 235.497852 105.478125
L 217.806874 105.478125
z
" clip-path="url(#p1bc532db3b)" style="fill: #ffffff; stroke: #9ca3af; stroke-width: 0.8; stroke-linejoin: miter"/>
   </g>
   <g id="patch_45">
    <path d="M 235.497852 127.307625
L 253.188829 127.307625
L 253.188829 105.478125
L 235.497852 105.478125
z
" clip-path="url(#p1bc532db3b)" style="fill: #ffffff; stroke: #9ca3af; stroke-width: 0.8; stroke-linejoin: miter"/>
   </g>
   <g id="patch_46">
    <path d="M 253.188829 127.307625
L 270.879807 127.307625
L 270.879807 105.478125
L 253.188829 105.478125
z
" clip-path="url(#p1bc532db3b)" style="fill: #ffffff; stroke: #9ca3af; stroke-width: 0.8; stroke-linejoin: miter"/>
   </g>
   <g id="patch_47">
    <path d="M 270.879807 127.307625
L 288.570784 127.307625
L 288.570784 105.478125
L 270.879807 105.478125
z
" clip-path="url(#p1bc532db3b)" style="fill: #ffffff; stroke: #9ca3af; stroke-width: 0.8; stroke-linejoin: miter"/>
   </g>
   <g id="patch_48">
    <path d="M 288.570784 127.307625
L 306.261762 127.307625
L 306.261762 105.478125
L 288.570784 105.478125
z
" clip-path="url(#p1bc532db3b)" style="fill: #ffffff; stroke: #9ca3af; stroke-width: 0.8; stroke-linejoin: miter"/>
   </g>
   <g id="patch_49">
    <path d="M 217.806874 127.307625
L 306.261762 127.307625
L 306.261762 83.648625
L 217.806874 83.648625
L 217.806874 127.307625
z
" clip-path="url(#p1bc532db3b)" style="fill: none; stroke: #ff7f0e; stroke-width: 2; stroke-linejoin: miter"/>
   </g>
   <g id="text_1">
    <text style="font-weight: 700; font-size: 10px; font-family: 'DejaVu Sans'; text-anchor: middle; fill: #1f77b4" x="68.275994" y="52.462937" transform="rotate(-0 68.275994 52.462937)">Sparse interactions</text>
   </g>
   <g id="text_2">
    <text style="font-weight: 700; font-size: 20px; font-family: 'DejaVu Sans'; text-anchor: start" x="125.13985" y="121.070625" transform="rotate(-0 125.13985 121.070625)">~</text>
   </g>
   <g id="text_3">
    <text style="font-weight: 700; font-size: 10px; font-family: 'DejaVu Sans'; text-anchor: middle; fill: #2ca02c" x="168.103652" y="52.462937" transform="rotate(-0 168.103652 52.462937)">Users</text>
   </g>
   <g id="text_4">
    <text style="font-weight: 700; font-size: 16px; font-family: 'DejaVu Sans'; text-anchor: start" x="198.852256" y="121.070625" transform="rotate(-0 198.852256 121.070625)">x</text>
   </g>
   <g id="text_5">
    <text style="font-weight: 700; font-size: 10px; font-family: 'DejaVu Sans'; text-anchor: middle; fill: #ff7f0e" x="262.034318" y="88.845437" transform="rotate(-0 262.034318 88.845437)">Items</text>
   </g>
   <g id="patch_50">
    <path d="M 151.376332 205.05415
Q 121.875028 148.876046 92.893533 93.687791
" style="fill: none; stroke: #9467bd; stroke-linecap: round"/>
    <path d="M 92.982559 98.15904
L 92.893533 93.687791
L 96.523948 96.299319
" style="fill: none; stroke: #9467bd; stroke-linecap: round"/>
   </g>
   <g id="text_6">
    <text style="font-size: 10px; font-family: 'DejaVu Sans'; fill: #9467bd" transform="translate(97.421325 216.421562)">one cell is reconstructed</text>
    <text style="font-size: 10px; font-family: 'DejaVu Sans'; fill: #9467bd" transform="translate(92.173668 227.619375)">by a user-item dot product</text>
   </g>
  </g>
  <g id="axes_2">
   <g id="patch_51">
    <path d="M 380.854887 271.798125
L 648.9 271.798125
L 648.9 22.318125
L 380.854887 22.318125
z
" style="fill: #ffffff"/>
   </g>
   <g id="matplotlib.axis_1">
    <g id="xtick_1">
     <g id="line2d_1">
      <path d="M 424.822761 271.798125
L 424.822761 22.318125
" clip-path="url(#pef3dd5b994)" style="fill: none; stroke: #e5e7eb; stroke-width: 0.8; stroke-linecap: square"/>
     </g>
     <g id="line2d_2">
      <defs>
       <path id="m3745ae70e3" d="M 0 0
L 0 3.5
" style="stroke: #000000; stroke-width: 0.8"/>
      </defs>
      <g>
       <use xlink:href="#m3745ae70e3" x="424.822761" y="271.798125" style="stroke: #000000; stroke-width: 0.8"/>
      </g>
     </g>
     <g id="text_7">
      <text style="font-size: 10px; font-family: 'DejaVu Sans'; text-anchor: middle" x="424.822761" y="286.396562" transform="rotate(-0 424.822761 286.396562)">0.2</text>
     </g>
    </g>
    <g id="xtick_2">
     <g id="line2d_3">
      <path d="M 477.796104 271.798125
L 477.796104 22.318125
" clip-path="url(#pef3dd5b994)" style="fill: none; stroke: #e5e7eb; stroke-width: 0.8; stroke-linecap: square"/>
     </g>
     <g id="line2d_4">
      <g>
       <use xlink:href="#m3745ae70e3" x="477.796104" y="271.798125" style="stroke: #000000; stroke-width: 0.8"/>
      </g>
     </g>
     <g id="text_8">
      <text style="font-size: 10px; font-family: 'DejaVu Sans'; text-anchor: middle" x="477.796104" y="286.396562" transform="rotate(-0 477.796104 286.396562)">0.4</text>
     </g>
    </g>
    <g id="xtick_3">
     <g id="line2d_5">
      <path d="M 530.769446 271.798125
L 530.769446 22.318125
" clip-path="url(#pef3dd5b994)" style="fill: none; stroke: #e5e7eb; stroke-width: 0.8; stroke-linecap: square"/>
     </g>
     <g id="line2d_6">
      <g>
       <use xlink:href="#m3745ae70e3" x="530.769446" y="271.798125" style="stroke: #000000; stroke-width: 0.8"/>
      </g>
     </g>
     <g id="text_9">
      <text style="font-size: 10px; font-family: 'DejaVu Sans'; text-anchor: middle" x="530.769446" y="286.396562" transform="rotate(-0 530.769446 286.396562)">0.6</text>
     </g>
    </g>
    <g id="xtick_4">
     <g id="line2d_7">
      <path d="M 583.742789 271.798125
L 583.742789 22.318125
" clip-path="url(#pef3dd5b994)" style="fill: none; stroke: #e5e7eb; stroke-width: 0.8; stroke-linecap: square"/>
     </g>
     <g id="line2d_8">
      <g>
       <use xlink:href="#m3745ae70e3" x="583.742789" y="271.798125" style="stroke: #000000; stroke-width: 0.8"/>
      </g>
     </g>
     <g id="text_10">
      <text style="font-size: 10px; font-family: 'DejaVu Sans'; text-anchor: middle" x="583.742789" y="286.396562" transform="rotate(-0 583.742789 286.396562)">0.8</text>
     </g>
    </g>
    <g id="xtick_5">
     <g id="line2d_9">
      <path d="M 636.716131 271.798125
L 636.716131 22.318125
" clip-path="url(#pef3dd5b994)" style="fill: none; stroke: #e5e7eb; stroke-width: 0.8; stroke-linecap: square"/>
     </g>
     <g id="line2d_10">
      <g>
       <use xlink:href="#m3745ae70e3" x="636.716131" y="271.798125" style="stroke: #000000; stroke-width: 0.8"/>
      </g>
     </g>
     <g id="text_11">
      <text style="font-size: 10px; font-family: 'DejaVu Sans'; text-anchor: middle" x="636.716131" y="286.396562" transform="rotate(-0 636.716131 286.396562)">1.0</text>
     </g>
    </g>
    <g id="text_12">
     <text style="font-size: 9px; font-family: 'DejaVu Sans'; text-anchor: middle" x="514.877444" y="299.314844" transform="rotate(-0 514.877444 299.314844)">relative memory</text>
    </g>
   </g>
   <g id="matplotlib.axis_2">
    <g id="ytick_1">
     <g id="line2d_11">
      <path d="M 380.854887 247.858125
L 648.9 247.858125
" clip-path="url(#pef3dd5b994)" style="fill: none; stroke: #e5e7eb; stroke-width: 0.8; stroke-linecap: square"/>
     </g>
     <g id="line2d_12">
      <defs>
       <path id="m095a492e84" d="M 0 0
L -3.5 0
" style="stroke: #000000; stroke-width: 0.8"/>
      </defs>
      <g>
       <use xlink:href="#m095a492e84" x="380.854887" y="247.858125" style="stroke: #000000; stroke-width: 0.8"/>
      </g>
     </g>
     <g id="text_13">
      <text style="font-size: 10px; font-family: 'DejaVu Sans'; text-anchor: end" x="373.854887" y="251.657344" transform="rotate(-0 373.854887 251.657344)">0.50</text>
     </g>
    </g>
    <g id="ytick_2">
     <g id="line2d_13">
      <path d="M 380.854887 216.358125
L 648.9 216.358125
" clip-path="url(#pef3dd5b994)" style="fill: none; stroke: #e5e7eb; stroke-width: 0.8; stroke-linecap: square"/>
     </g>
     <g id="line2d_14">
      <g>
       <use xlink:href="#m095a492e84" x="380.854887" y="216.358125" style="stroke: #000000; stroke-width: 0.8"/>
      </g>
     </g>
     <g id="text_14">
      <text style="font-size: 10px; font-family: 'DejaVu Sans'; text-anchor: end" x="373.854887" y="220.157344" transform="rotate(-0 373.854887 220.157344)">0.55</text>
     </g>
    </g>
    <g id="ytick_3">
     <g id="line2d_15">
      <path d="M 380.854887 184.858125
L 648.9 184.858125
" clip-path="url(#pef3dd5b994)" style="fill: none; stroke: #e5e7eb; stroke-width: 0.8; stroke-linecap: square"/>
     </g>
     <g id="line2d_16">
      <g>
       <use xlink:href="#m095a492e84" x="380.854887" y="184.858125" style="stroke: #000000; stroke-width: 0.8"/>
      </g>
     </g>
     <g id="text_15">
      <text style="font-size: 10px; font-family: 'DejaVu Sans'; text-anchor: end" x="373.854887" y="188.657344" transform="rotate(-0 373.854887 188.657344)">0.60</text>
     </g>
    </g>
    <g id="ytick_4">
     <g id="line2d_17">
      <path d="M 380.854887 153.358125
L 648.9 153.358125
" clip-path="url(#pef3dd5b994)" style="fill: none; stroke: #e5e7eb; stroke-width: 0.8; stroke-linecap: square"/>
     </g>
     <g id="line2d_18">
      <g>
       <use xlink:href="#m095a492e84" x="380.854887" y="153.358125" style="stroke: #000000; stroke-width: 0.8"/>
      </g>
     </g>
     <g id="text_16">
      <text style="font-size: 10px; font-family: 'DejaVu Sans'; text-anchor: end" x="373.854887" y="157.157344" transform="rotate(-0 373.854887 157.157344)">0.65</text>
     </g>
    </g>
    <g id="ytick_5">
     <g id="line2d_19">
      <path d="M 380.854887 121.858125
L 648.9 121.858125
" clip-path="url(#pef3dd5b994)" style="fill: none; stroke: #e5e7eb; stroke-width: 0.8; stroke-linecap: square"/>
     </g>
     <g id="line2d_20">
      <g>
       <use xlink:href="#m095a492e84" x="380.854887" y="121.858125" style="stroke: #000000; stroke-width: 0.8"/>
      </g>
     </g>
     <g id="text_17">
      <text style="font-size: 10px; font-family: 'DejaVu Sans'; text-anchor: end" x="373.854887" y="125.657344" transform="rotate(-0 373.854887 125.657344)">0.70</text>
     </g>
    </g>
    <g id="ytick_6">
     <g id="line2d_21">
      <path d="M 380.854887 90.358125
L 648.9 90.358125
" clip-path="url(#pef3dd5b994)" style="fill: none; stroke: #e5e7eb; stroke-width: 0.8; stroke-linecap: square"/>
     </g>
     <g id="line2d_22">
      <g>
       <use xlink:href="#m095a492e84" x="380.854887" y="90.358125" style="stroke: #000000; stroke-width: 0.8"/>
      </g>
     </g>
     <g id="text_18">
      <text style="font-size: 10px; font-family: 'DejaVu Sans'; text-anchor: end" x="373.854887" y="94.157344" transform="rotate(-0 373.854887 94.157344)">0.75</text>
     </g>
    </g>
    <g id="ytick_7">
     <g id="line2d_23">
      <path d="M 380.854887 58.858125
L 648.9 58.858125
" clip-path="url(#pef3dd5b994)" style="fill: none; stroke: #e5e7eb; stroke-width: 0.8; stroke-linecap: square"/>
     </g>
     <g id="line2d_24">
      <g>
       <use xlink:href="#m095a492e84" x="380.854887" y="58.858125" style="stroke: #000000; stroke-width: 0.8"/>
      </g>
     </g>
     <g id="text_19">
      <text style="font-size: 10px; font-family: 'DejaVu Sans'; text-anchor: end" x="373.854887" y="62.657344" transform="rotate(-0 373.854887 62.657344)">0.80</text>
     </g>
    </g>
    <g id="ytick_8">
     <g id="line2d_25">
      <path d="M 380.854887 27.358125
L 648.9 27.358125
" clip-path="url(#pef3dd5b994)" style="fill: none; stroke: #e5e7eb; stroke-width: 0.8; stroke-linecap: square"/>
     </g>
     <g id="line2d_26">
      <g>
       <use xlink:href="#m095a492e84" x="380.854887" y="27.358125" style="stroke: #000000; stroke-width: 0.8"/>
      </g>
     </g>
     <g id="text_20">
      <text style="font-size: 10px; font-family: 'DejaVu Sans'; text-anchor: end" x="373.854887" y="31.157344" transform="rotate(-0 373.854887 31.157344)">0.85</text>
     </g>
    </g>
    <g id="text_21">
     <text style="font-size: 9px; font-family: 'DejaVu Sans'; text-anchor: middle" x="345.717543" y="147.058125" transform="rotate(-90 345.717543 147.058125)">reconstruction quality</text>
    </g>
   </g>
   <g id="line2d_27">
    <path d="M 393.038756 260.458125
L 403.633424 191.158125
L 424.822761 121.858125
L 461.904101 71.458125
L 536.066781 46.258125
L 636.716131 33.658125
" clip-path="url(#pef3dd5b994)" style="fill: none; stroke: #9467bd; stroke-width: 1.5; stroke-linecap: square"/>
    <defs>
     <path id="mc357f06dd9" d="M 0 3
C 0.795609 3 1.55874 2.683901 2.12132 2.12132
C 2.683901 1.55874 3 0.795609 3 0
C 3 -0.795609 2.683901 -1.55874 2.12132 -2.12132
C 1.55874 -2.683901 0.795609 -3 0 -3
C -0.795609 -3 -1.55874 -2.683901 -2.12132 -2.12132
C -2.683901 -1.55874 -3 -0.795609 -3 0
C -3 0.795609 -2.683901 1.55874 -2.12132 2.12132
C -1.55874 2.683901 -0.795609 3 0 3
z
" style="stroke: #9467bd"/>
    </defs>
    <g clip-path="url(#pef3dd5b994)">
     <use xlink:href="#mc357f06dd9" x="393.038756" y="260.458125" style="fill: #9467bd; stroke: #9467bd"/>
     <use xlink:href="#mc357f06dd9" x="403.633424" y="191.158125" style="fill: #9467bd; stroke: #9467bd"/>
     <use xlink:href="#mc357f06dd9" x="424.822761" y="121.858125" style="fill: #9467bd; stroke: #9467bd"/>
     <use xlink:href="#mc357f06dd9" x="461.904101" y="71.458125" style="fill: #9467bd; stroke: #9467bd"/>
     <use xlink:href="#mc357f06dd9" x="536.066781" y="46.258125" style="fill: #9467bd; stroke: #9467bd"/>
     <use xlink:href="#mc357f06dd9" x="636.716131" y="33.658125" style="fill: #9467bd; stroke: #9467bd"/>
    </g>
   </g>
   <g id="patch_52">
    <path d="M 380.854887 271.798125
L 380.854887 22.318125
" style="fill: none; stroke: #000000; stroke-width: 0.8; stroke-linejoin: miter; stroke-linecap: square"/>
   </g>
   <g id="patch_53">
    <path d="M 648.9 271.798125
L 648.9 22.318125
" style="fill: none; stroke: #000000; stroke-width: 0.8; stroke-linejoin: miter; stroke-linecap: square"/>
   </g>
   <g id="patch_54">
    <path d="M 380.854887 271.798125
L 648.9 271.798125
" style="fill: none; stroke: #000000; stroke-width: 0.8; stroke-linejoin: miter; stroke-linecap: square"/>
   </g>
   <g id="patch_55">
    <path d="M 380.854887 22.318125
L 648.9 22.318125
" style="fill: none; stroke: #000000; stroke-width: 0.8; stroke-linejoin: miter; stroke-linecap: square"/>
   </g>
   <g id="text_22">
    <text style="font-size: 8px; font-family: 'DejaVu Sans'; text-anchor: middle" x="393.038756" y="251.008125" transform="rotate(-0 393.038756 251.008125)">r=4</text>
   </g>
   <g id="text_23">
    <text style="font-size: 8px; font-family: 'DejaVu Sans'; text-anchor: middle" x="403.633424" y="181.708125" transform="rotate(-0 403.633424 181.708125)">r=8</text>
   </g>
   <g id="text_24">
    <text style="font-size: 8px; font-family: 'DejaVu Sans'; text-anchor: middle" x="424.822761" y="112.408125" transform="rotate(-0 424.822761 112.408125)">r=16</text>
   </g>
   <g id="text_25">
    <text style="font-size: 8px; font-family: 'DejaVu Sans'; text-anchor: middle" x="461.904101" y="62.008125" transform="rotate(-0 461.904101 62.008125)">r=32</text>
   </g>
   <g id="text_26">
    <text style="font-size: 8px; font-family: 'DejaVu Sans'; text-anchor: middle" x="536.066781" y="36.808125" transform="rotate(-0 536.066781 36.808125)">r=64</text>
   </g>
   <g id="text_27">
    <text style="font-size: 8px; font-family: 'DejaVu Sans'; text-anchor: middle" x="636.716131" y="24.208125" transform="rotate(-0 636.716131 24.208125)">r=128</text>
   </g>
   <g id="text_28">
    <text style="font-size: 12px; font-family: 'DejaVu Sans'; text-anchor: middle" x="514.877444" y="16.318125" transform="rotate(-0 514.877444 16.318125)">Rank is a capacity-cost knob</text>
   </g>
  </g>
 </g>
 <defs>
  <clipPath id="p1bc532db3b">
   <rect x="7.2" y="22.318125" width="294.849624" height="249.48"/>
  </clipPath>
  <clipPath id="pef3dd5b994">
   <rect x="380.854887" y="22.318125" width="268.045113" height="249.48"/>
  </clipPath>
 </defs>
</svg>
